<svg xmlns="http://www.w3.org/2000/svg" width="513.951" height="368.696" viewBox="0 0 513.951 368.696">
  <path id="mono_logo" data-name="mono logo" d="M245.607,296.689a116.6,116.6,0,0,1,14.279-50.553A122.847,122.847,0,0,1,290.572,208c32.371-26.784,75.829-35.121,116.359-22.35,39.466,12.505,68.2,42.3,78.933,81.771a118.639,118.639,0,0,1,3.991,36.451c-1.862,38.846-23.5,74.765-57.736,96.138-39.289,26.961-92.325,27.937-131.88,2.572-35.742-22.527-56.672-63.058-54.632-105.894Zm228.2,11.086c1.951-40.353-18.979-80.086-53.3-101.282a114.739,114.739,0,0,0-68.822-18.181,116.2,116.2,0,0,0-58.623,22.882,114.209,114.209,0,0,0-41.506,59.687,106.82,106.82,0,0,0-2.306,17.649A110.359,110.359,0,0,0,274.342,364c23.236,29.622,59.865,46.029,98,44.078C408,406.22,439.037,388.3,457.573,358.86A103.437,103.437,0,0,0,473.8,307.775ZM173.148,519.919c0,13.924-14.634,28.558-34.411,28.558-13.215,0-27.937-9.046-27.937-24.833A24.507,24.507,0,0,1,129.779,499.7v-35.83h15.7c7.716,0,15.964,6.3,15.964,14.368,0,5.765-4.523,10.82-9.844,13.126C159.934,492.425,173.148,503.777,173.148,519.919Zm-5.5,0c0-16.23-10.909-27.227-18.27-27.227h-14.19v6.563c11.707.355,18.359,10.288,18.359,17.028h-1.33c0-4.434-6.3-13.037-16.94-13.392v22.7h-5.5V503.334c-9.667,1.862-17.117,9.135-17.117,20.31,0,15.432,14.279,23.5,26.074,23.5C153.459,547.146,167.649,537.39,167.649,519.919Zm-32.46-54.632v26.075h9.49c6.563,0,11.263-6.031,11.263-13.037,0-7.45-4.346-13.037-11.263-13.037ZM232.3,524.264v1.33H202.593V463.867h5.5v60.4Zm33.7-60.308v61.727h-5.5V463.956Zm47.182.443c-8.425,0-13.3,4.434-13.3,10.82,0,5.41,3.281,7.893,5.853,9.4l13.924,8.337c5.5,3.725,12.239,7.184,12.239,17.206,0,8.248-7.627,16.407-18.713,16.407-7.627,0-12.416-2.572-17.738-7.361v-3.193c5.144,5.853,10.288,9.135,17.738,9.135,9.312,0,15.077-6.74,15.077-12.328,0-8.159-5.676-11.175-8.514-13.392l-15.521-9.4c-4.346-2.927-7.893-6.74-7.893-12.15,0-9.135,7.361-14.9,16.94-14.9a20.223,20.223,0,0,1,13.3,5.144v3.193C322.677,466.794,318.775,464.577,313.188,464.4Zm64.477,0c-8.425,0-13.3,4.434-13.3,10.82,0,5.41,3.281,7.893,5.853,9.4l13.924,8.337c5.5,3.725,12.239,7.184,12.239,17.206,0,8.248-7.627,16.407-18.713,16.407-7.627,0-12.416-2.572-17.738-7.361v-3.193c5.144,5.853,10.288,9.135,17.738,9.135,9.312,0,15.077-6.74,15.077-12.328,0-8.159-5.676-11.175-8.514-13.392l-15.52-9.4c-4.257-2.927-7.893-6.74-7.893-12.15,0-9.135,7.361-14.9,16.94-14.9a20.223,20.223,0,0,1,13.3,5.144v3.193C387.154,466.794,383.251,464.577,377.664,464.4Zm53.568-.443v61.727h-5.41V463.956Zm70.241,61.727h-1.951l-26.873-27.4h-7.8v27.4h-5.321V463.956h21.463c9.135,0,18.27,7.45,18.27,17.117,0,9.4-9.135,17.206-18.27,17.206h-6.3ZM480.1,496.86c7.8,0,13.658-7.538,13.658-15.787,0-8.869-5.41-15.7-13.658-15.7H465.023v31.573H480.1Zm55.076-31.573v28.38h20.576V495H535.175v29.267h27.937v1.33H529.765V463.867h33.347v1.33H535.175Zm61.639,0v28.38H617.39V495H596.814v29.267h27.937v1.33H591.4V463.867h33.347v1.33H596.814ZM386.178,276.38c7.184-3.991,13.658-11.352,13.658-20.487,0-13.747-14.013-23.946-26.518-23.946H347.333v57.382c-17.56,4.257-30.243,20.487-30.243,38.934,0,19.955,17.028,40.619,45.586,40.619,32.9,0,55.874-24.567,55.874-46.562C418.461,298.2,400.28,280.1,386.178,276.38Zm-14.1-.71H358.064V236.115h14.013c10.2,0,17.028,7.982,17.028,19.778C389.016,266.979,381.566,275.67,372.077,275.67Zm-9.49,88.955c-16.851,0-40.619-11.263-40.619-36.362,0-15.609,9.933-27.76,25.365-31.13v35.3h10.731V296.157c15.521.976,25.01,13.569,25.01,20.31v.976h4.168v-.976c.089-11-10.288-27.139-29.267-28.2v-8.425h21.551c11.175,0,28.114,16.94,28.114,42.393C407.73,350.08,385.025,364.625,362.587,364.625Z" transform="translate(-110.8 -179.78)" fill="#ce9878"/>
</svg>
