<svg xmlns="http://www.w3.org/2000/svg" width="35.495" height="35.495" viewBox="0 0 35.495 35.495">
  <path id="add_1_" data-name="add (1)" d="M17.747,0A17.747,17.747,0,1,0,35.495,17.747,17.747,17.747,0,0,0,17.747,0Zm0,32.537A14.789,14.789,0,1,1,32.537,17.747,14.789,14.789,0,0,1,17.747,32.537Zm7.395-14.789a1.479,1.479,0,0,1-1.479,1.479H19.226v4.437a1.479,1.479,0,1,1-2.958,0V19.226H11.832a1.479,1.479,0,1,1,0-2.958h4.437V11.832a1.479,1.479,0,1,1,2.958,0v4.437h4.437A1.479,1.479,0,0,1,25.142,17.747Z" fill="#fff"/>
</svg>
