<svg id="Group_55600" data-name="Group 55600" xmlns="http://www.w3.org/2000/svg" width="33" height="33" viewBox="0 0 33 33">
  <ellipse id="Ellipse_674" data-name="Ellipse 674" cx="16.5" cy="16.5" rx="16.5" ry="16.5" transform="translate(0 0)" fill="#fff"/>
  <path id="Path_85383" data-name="Path 85383" d="M125.325,48.636A16.5,16.5,0,0,1,110.66,78.018a16.5,16.5,0,1,0,14.665-29.382Z" transform="translate(-102.981 -47.572)" fill="#fff"/>
  <ellipse id="Ellipse_675" data-name="Ellipse 675" cx="13.394" cy="13.394" rx="13.394" ry="13.394" transform="translate(3.106 3.106)" fill="#fff"/>
  <path id="Path_85384" data-name="Path 85384" d="M141.284,86.215A13.4,13.4,0,0,1,129.41,110a13.4,13.4,0,1,0,11.874-23.787Z" transform="translate(-120.336 -82.353)" fill="#fff"/>
  <path id="Path_85386" data-name="Path 85386" d="M169.4,131.817a4.579,4.579,0,0,0-4.574-4.574h-1.307a1.486,1.486,0,1,1,0-2.971h1.307a1.484,1.484,0,0,1,1.369.908,1.544,1.544,0,1,0,2.844-1.2,4.566,4.566,0,0,0-3.323-2.706V120.1a1.544,1.544,0,1,0-3.088,0v1.17a4.574,4.574,0,0,0,.891,9.06h1.307a1.486,1.486,0,0,1,0,2.971h-1.307a1.477,1.477,0,0,1-1.385-.946,1.544,1.544,0,0,0-2.877,1.122,4.542,4.542,0,0,0,3.372,2.827v1.169a1.544,1.544,0,0,0,3.088,0V136.3A4.581,4.581,0,0,0,169.4,131.817Z" transform="translate(-147.672 -112.288)" fill="#fff"/>
</svg>
