<svg xmlns="http://www.w3.org/2000/svg" width="31.068" height="31.071" viewBox="0 0 31.068 31.071">
  <g id="messenger" transform="translate(0.001 0)">
    <path id="Path_85452" data-name="Path 85452" d="M15.559,0A15.238,15.238,0,0,0,.025,14.89,14.606,14.606,0,0,0,5.2,25.971v4.453a.647.647,0,0,0,.99.549L9.8,28.719a16.028,16.028,0,0,0,5.758,1.058A15.238,15.238,0,0,0,31.093,14.89,15.238,15.238,0,0,0,15.559,0Z" transform="translate(-0.026 0)" fill="#2196f3"/>
    <path id="Path_85453" data-name="Path 85453" d="M105.954,170.955a.647.647,0,0,0-.828-.181l-6.731,3.67-4.188-3.591a.647.647,0,0,0-.879.034l-7.767,7.767a.647.647,0,0,0,.768,1.025l6.731-3.67,4.192,3.592a.647.647,0,0,0,.879-.034L105.9,171.8A.647.647,0,0,0,105.954,170.955Z" transform="translate(-80.194 -160.337)" fill="#fafafa"/>
  </g>
</svg>
