<svg xmlns="http://www.w3.org/2000/svg" width="24" height="20.95" viewBox="0 0 24 20.95">
  <g id="video-chat" transform="translate(-3 -4.525)">
    <path id="Path_87861" data-name="Path 87861" d="M24.62,4.525H5.38A2.388,2.388,0,0,0,3,6.915V18.9a2.386,2.386,0,0,0,2.38,2.38H6.47v3.2a.982.982,0,0,0,.57.9,1,1,0,0,0,1.06-.12l4.95-3.98H24.62A2.386,2.386,0,0,0,27,18.9V6.915a2.388,2.388,0,0,0-2.38-2.39Zm-6.26,9.34-3.65,2.51a1.488,1.488,0,0,1-1.58.1,1.532,1.532,0,0,1-.82-1.36v-5.02a1.528,1.528,0,0,1,2.4-1.26l3.65,2.51a1.533,1.533,0,0,1,0,2.52Z" fill="#444"/>
  </g>
</svg>
