<svg xmlns="http://www.w3.org/2000/svg" width="29.487" height="23.865" viewBox="0 0 29.487 23.865">
  <path id="add-to-playlist" d="M16.628,19.921h10.4a1.405,1.405,0,0,0,0-2.811h-10.4a1.405,1.405,0,1,0,0,2.811Zm0,7.027h10.4a1.405,1.405,0,0,0,0-2.811h-10.4a1.405,1.405,0,0,0,0,2.811Zm0,7.168H43.191a1.405,1.405,0,1,0,0-2.811H16.628a1.405,1.405,0,0,0,0,2.811Zm26.437,4.048H16.515a1.405,1.405,0,1,0,0,2.811H43.065a1.405,1.405,0,1,0,0-2.811ZM33.437,24.7h3.331v3.331a1.405,1.405,0,1,0,2.811,0V24.7h3.345a1.405,1.405,0,1,0,0-2.811H39.593V18.558a1.405,1.405,0,1,0-2.811,0v3.331H33.451a1.405,1.405,0,0,0,0,2.811Z" transform="translate(-15.11 -17.11)" fill="#fff" opacity="1"/>
</svg>
