<svg xmlns="http://www.w3.org/2000/svg" xmlns:xlink="http://www.w3.org/1999/xlink" width="74" height="75" viewBox="0 0 74 75">
  <defs>
    <radialGradient id="radial-gradient" cx="0.506" cy="0.433" r="0.5" gradientUnits="objectBoundingBox">
      <stop offset="0" stop-color="#fddb35"/>
      <stop offset="0.482" stop-color="#fcd934"/>
      <stop offset="0.655" stop-color="#fcd232"/>
      <stop offset="0.779" stop-color="#fbc62e"/>
      <stop offset="0.879" stop-color="#f9b528"/>
      <stop offset="0.964" stop-color="#f89f21"/>
      <stop offset="1" stop-color="#f7941e"/>
    </radialGradient>
  </defs>
  <g id="Group_56475" data-name="Group 56475" transform="translate(-2223.381 -182.713)">
    <ellipse id="Ellipse_905" data-name="Ellipse 905" cx="37" cy="37.5" rx="37" ry="37.5" transform="translate(2223.381 182.713)" fill="url(#radial-gradient)"/>
    <path id="Path_87871" data-name="Path 87871" d="M2302.38,229.035a36.831,36.831,0,0,1-58.416,29.841A39.357,39.357,0,0,0,2301.541,224c0-1.182-.05-2.357-.159-3.515A36.794,36.794,0,0,1,2302.38,229.035Z" transform="translate(-5.168 -8.264)" fill="#fbd69e" style="mix-blend-mode: multiply;isolation: isolate"/>
    <path id="Path_87872" data-name="Path 87872" d="M2247.268,221.665c2.136,1.143,14.21,8.254,12.833,10.911s-11.158,4.562-15.644,3.7c-2.191-.421.666-2.9,3.664-3.3s9.75-.612,4.706-3.639-6.047-4.411-6.933-5.23S2246.29,221.142,2247.268,221.665Z" transform="translate(-5.097 -9.227)" fill="#87594a"/>
    <path id="Path_87873" data-name="Path 87873" d="M2292.861,221.665c-2.137,1.143-14.211,8.254-12.834,10.911s11.159,4.562,15.646,3.7c2.191-.421-.667-2.9-3.666-3.3s-9.749-.612-4.7-3.639,6.047-4.411,6.932-5.23S2293.838,221.142,2292.861,221.665Z" transform="translate(-14.27 -9.227)" fill="#87594a"/>
    <g id="Group_56474" data-name="Group 56474" transform="translate(2243.213 236.035)">
      <path id="Path_87874" data-name="Path 87874" d="M2277.246,261.153a2.744,2.744,0,0,1-1.791-.689l-3.312-2.84-3.309,2.839a2.672,2.672,0,0,1-3.582,0l-3.31-2.838-3.308,2.838a2.674,2.674,0,0,1-3.583,0l-4.407-3.781a2.442,2.442,0,0,1-.4-3.057,1.692,1.692,0,0,1,2.6-.473l4,3.429,3.444-2.954a2.471,2.471,0,0,1,3.311,0l3.446,2.955,3.445-2.954a2.471,2.471,0,0,1,3.31,0l3.449,2.956,4-3.431a1.693,1.693,0,0,1,2.606.475,2.443,2.443,0,0,1-.406,3.057l-4.413,3.782A2.744,2.744,0,0,1,2277.246,261.153Z" transform="translate(-2249.878 -252.729)" fill="#87594a"/>
    </g>
  </g>
</svg>
