<svg xmlns="http://www.w3.org/2000/svg" xmlns:xlink="http://www.w3.org/1999/xlink" width="75.839" height="75.839" viewBox="0 0 75.839 75.839">
  <defs>
    <radialGradient id="radial-gradient" cx="0.576" cy="0.494" r="0.5" gradientUnits="objectBoundingBox">
      <stop offset="0" stop-color="#fda135"/>
      <stop offset="0.457" stop-color="#fc9f34"/>
      <stop offset="0.622" stop-color="#fc9832"/>
      <stop offset="0.739" stop-color="#fb8c2f"/>
      <stop offset="0.834" stop-color="#fa7b2b"/>
      <stop offset="0.916" stop-color="#f96526"/>
      <stop offset="0.986" stop-color="#f74b1f"/>
      <stop offset="1" stop-color="#f7451e"/>
    </radialGradient>
  </defs>
  <g id="Group_56473" data-name="Group 56473" transform="translate(-1662.332 -1085.769)">
    <circle id="Ellipse_901" data-name="Ellipse 901" cx="37.639" cy="37.639" r="37.639" transform="translate(1662.332 1161.045) rotate(-89.572)" fill="url(#radial-gradient)"/>
    <g id="Group_56471" data-name="Group 56471" transform="translate(1678.888 1114.198)">
      <ellipse id="Ellipse_902" data-name="Ellipse 902" cx="7.097" cy="7.339" rx="7.097" ry="7.339" transform="translate(0 0)" fill="#87594a"/>
      <path id="Path_87866" data-name="Path 87866" d="M1695.16,1128.078a2.666,2.666,0,1,1-2.666-2.666A2.666,2.666,0,0,1,1695.16,1128.078Z" transform="translate(-1685.397 -1123.584)" fill="#fff"/>
    </g>
    <path id="Path_87867" data-name="Path 87867" d="M1742.812,1132.745a37.64,37.64,0,0,1-59.7,30.5,40.222,40.222,0,0,0,58.842-35.641c0-1.209-.051-2.409-.162-3.593A37.613,37.613,0,0,1,1742.812,1132.745Z" transform="translate(-4.919 -9.053)" fill="#fbaa9e" style="mix-blend-mode: multiply;isolation: isolate"/>
    <path id="Path_87868" data-name="Path 87868" d="M1696.067,1117.138a9.758,9.758,0,0,0-7.395-3.117,2.364,2.364,0,0,1-2.39-1.529l-.008-.036c-.27-.971.766-2.094,2.3-2.132a13.459,13.459,0,0,1,10.2,4.3c1.047,1.128.968,2.654.084,3.139l-.031.019A2.364,2.364,0,0,1,1696.067,1117.138Z" transform="translate(-5.658 -5.813)" fill="#fbaa9e" style="mix-blend-mode: multiply;isolation: isolate"/>
    <path id="Path_87869" data-name="Path 87869" d="M1723.83,1117.138a9.757,9.757,0,0,1,7.394-3.117,2.364,2.364,0,0,0,2.39-1.529l.008-.036c.27-.971-.766-2.094-2.305-2.132a13.458,13.458,0,0,0-10.2,4.3c-1.048,1.128-.968,2.654-.084,3.139l.031.019A2.364,2.364,0,0,0,1723.83,1117.138Z" transform="translate(-13.736 -5.813)" fill="#fbaa9e" style="mix-blend-mode: multiply;isolation: isolate"/>
    <g id="Group_56472" data-name="Group 56472" transform="translate(1707.422 1114.198)">
      <ellipse id="Ellipse_903" data-name="Ellipse 903" cx="7.097" cy="7.339" rx="7.097" ry="7.339" transform="translate(0 0)" fill="#87594a"/>
      <circle id="Ellipse_904" data-name="Ellipse 904" cx="2.666" cy="2.666" r="2.666" transform="translate(4.43 1.828)" fill="#fff"/>
    </g>
    <path id="Path_87870" data-name="Path 87870" d="M1720.034,1160.454a9.974,9.974,0,0,1-6.1,8.86,12.988,12.988,0,0,1-4.925,1.192c-.2.009-.4.012-.6.012s-.4,0-.6-.012a12.985,12.985,0,0,1-4.924-1.192,9.974,9.974,0,0,1-6.1-8.86,7.517,7.517,0,0,1,1.233-4.228c1.91-2.888,5.847-4.451,10.394-4.451s8.485,1.563,10.395,4.451A7.517,7.517,0,0,1,1720.034,1160.454Z" transform="translate(-8.155 -15.627)" fill="#87594a"/>
  </g>
</svg>
