<svg xmlns="http://www.w3.org/2000/svg" xmlns:xlink="http://www.w3.org/1999/xlink" width="74" height="75" viewBox="0 0 74 75">
  <defs>
    <radialGradient id="radial-gradient" cx="0.503" cy="0.427" r="0.5" gradientUnits="objectBoundingBox">
      <stop offset="0" stop-color="#fda135"/>
      <stop offset="0.457" stop-color="#fc9f34"/>
      <stop offset="0.622" stop-color="#fc9832"/>
      <stop offset="0.739" stop-color="#fb8c2f"/>
      <stop offset="0.834" stop-color="#fa7b2b"/>
      <stop offset="0.916" stop-color="#f96526"/>
      <stop offset="0.986" stop-color="#f74b1f"/>
      <stop offset="1" stop-color="#f7451e"/>
    </radialGradient>
  </defs>
  <g id="Group_56456" data-name="Group 56456" transform="translate(-204.193 -552.246)">
    <rect id="Rectangle_23786" data-name="Rectangle 23786" width="74" height="75" transform="translate(204.193 552.246)" fill="#fff" opacity="0"/>
    <g id="Group_56455" data-name="Group 56455" transform="translate(204.97 553.524)">
      <path id="Path_87824" data-name="Path 87824" d="M763.033,305.76a36.222,36.222,0,1,1-36.219-36.219A36.219,36.219,0,0,1,763.033,305.76Z" transform="translate(-690.588 -269.541)" fill="url(#radial-gradient)"/>
      <path id="Path_87825" data-name="Path 87825" d="M768.456,315.818A36.222,36.222,0,0,1,711,345.165a38.707,38.707,0,0,0,56.626-34.3c0-1.163-.05-2.318-.157-3.457A36.2,36.2,0,0,1,768.456,315.818Z" transform="translate(-696.009 -279.595)" fill="#fbaa9e" style="mix-blend-mode: multiply;isolation: isolate"/>
      <path id="Path_87826" data-name="Path 87826" d="M736.6,346.98h.247a13.562,13.562,0,0,1,7.822,2.4.529.529,0,0,0,.846-.526,9.379,9.379,0,0,0-8.7-6.846h-.187a9.378,9.378,0,0,0-8.7,6.846.529.529,0,0,0,.846.526A13.563,13.563,0,0,1,736.6,346.98Z" transform="translate(-700.496 -288.781)" fill="#87594a"/>
      <path id="Path_87827" data-name="Path 87827" d="M720.418,306.52a9.394,9.394,0,0,1,6.555,4.081,2.274,2.274,0,0,0,2.529,1.029l.033-.013c.914-.328,1.22-1.765.4-3a12.955,12.955,0,0,0-9.042-5.628c-1.468-.2-2.624.714-2.513,1.678l0,.035A2.274,2.274,0,0,0,720.418,306.52Z" transform="translate(-697.964 -278.415)" fill="#fbaa9e" style="mix-blend-mode: multiply;isolation: isolate"/>
      <path id="Path_87828" data-name="Path 87828" d="M755.044,306.52a9.4,9.4,0,0,0-6.555,4.081,2.275,2.275,0,0,1-2.53,1.029l-.033-.013c-.913-.328-1.22-1.765-.4-3a12.953,12.953,0,0,1,9.042-5.628c1.468-.2,2.623.714,2.513,1.678l0,.035A2.275,2.275,0,0,1,755.044,306.52Z" transform="translate(-705.048 -278.415)" fill="#fbaa9e" style="mix-blend-mode: multiply;isolation: isolate"/>
      <g id="Group_56454" data-name="Group 56454" transform="translate(19.306 32.851)">
        <ellipse id="Ellipse_890" data-name="Ellipse 890" cx="5.62" cy="5.812" rx="5.62" ry="5.812" transform="translate(0 0)" fill="#87594a"/>
        <path id="Path_87829" data-name="Path 87829" d="M725.872,318.35a2.112,2.112,0,1,1-2.112-2.112A2.112,2.112,0,0,1,725.872,318.35Z" transform="translate(-718.141 -314.79)" fill="#fff"/>
        <path id="Path_87830" data-name="Path 87830" d="M758.879,320.079a5.623,5.623,0,1,1-5.62-5.812A5.718,5.718,0,0,1,758.879,320.079Z" transform="translate(-725.041 -314.267)" fill="#87594a"/>
        <circle id="Ellipse_891" data-name="Ellipse 891" cx="2.112" cy="2.112" r="2.112" transform="translate(26.106 1.448)" fill="#fff"/>
      </g>
    </g>
  </g>
</svg>
