<svg xmlns="http://www.w3.org/2000/svg" xmlns:xlink="http://www.w3.org/1999/xlink" width="75.55" height="75.55" viewBox="0 0 75.55 75.55">
  <defs>
    <radialGradient id="radial-gradient" cx="0.59" cy="0.49" r="0.5" gradientUnits="objectBoundingBox">
      <stop offset="0" stop-color="#fddb35"/>
      <stop offset="0.482" stop-color="#fcd934"/>
      <stop offset="0.655" stop-color="#fcd232"/>
      <stop offset="0.779" stop-color="#fbc62e"/>
      <stop offset="0.879" stop-color="#f9b528"/>
      <stop offset="0.964" stop-color="#f89f21"/>
      <stop offset="1" stop-color="#f7941e"/>
    </radialGradient>
  </defs>
  <g id="Group_56502" data-name="Group 56502" transform="translate(-2242.187 -1026.712)">
    <circle id="Ellipse_924" data-name="Ellipse 924" cx="37.223" cy="37.223" r="37.223" transform="translate(2242.187 1101.15) rotate(-89.144)" fill="url(#radial-gradient)"/>
    <path id="Path_87937" data-name="Path 87937" d="M2322.37,1073.955a37.225,37.225,0,0,1-59.041,30.159,39.779,39.779,0,0,0,58.193-35.246c0-1.2-.051-2.383-.162-3.553A37.175,37.175,0,0,1,2322.37,1073.955Z" transform="translate(-5.183 -9.465)" fill="#fbd69e" style="mix-blend-mode: multiply;isolation: isolate"/>
    <path id="Path_87938" data-name="Path 87938" d="M2304.119,1102.432c.091,3.194-1.572,4.815-3.533,4.706a3.618,3.618,0,0,1-.79-.133,5.467,5.467,0,0,1-2.587-1.76c-2.883-3.339-7.054-2.86-10.7-2.86s-7.819-.479-10.7,2.86a5.464,5.464,0,0,1-2.587,1.76,4.017,4.017,0,0,1-.783.133c-1.968.115-3.637-1.506-3.534-4.706a12.675,12.675,0,0,1,1.348-5.47c3.388-6.672,12.259-8.846,16.26-8.846s12.872,2.174,16.259,8.846A12.634,12.634,0,0,1,2304.119,1102.432Z" transform="translate(-6.549 -15.055)" fill="#87594a"/>
    <path id="Path_87939" data-name="Path 87939" d="M2301.735,1110.9a3.633,3.633,0,0,1-.79-.134,5.469,5.469,0,0,1-2.587-1.76c-2.883-3.339-7.054-2.86-10.7-2.86s-7.82-.479-10.7,2.86a5.465,5.465,0,0,1-2.588,1.76,4.047,4.047,0,0,1-.782.134c2.422-5.355,7.808-7.437,14.073-7.437S2299.312,1105.546,2301.735,1110.9Z" transform="translate(-7.699 -18.818)" fill="#ee6571"/>
    <path id="Path_87940" data-name="Path 87940" d="M2302.61,1095.479c-.369.159-.749.315-1.139.464a34.1,34.1,0,0,0-28.464,0c-.389-.149-.769-.305-1.139-.464,3.856-5.516,11.683-7.363,15.371-7.363S2298.754,1089.963,2302.61,1095.479Z" transform="translate(-7.277 -15.055)" fill="#fff"/>
    <g id="Group_56501" data-name="Group 56501" transform="translate(2252.388 1041.126)">
      <g id="Group_56500" data-name="Group 56500" transform="translate(6.266 12.524)">
        <path id="Path_87941" data-name="Path 87941" d="M2265.367,1062.433c2.339.727,15.681,5.478,14.822,8.377s-10.2,6.659-14.822,6.659c-2.256,0,.107-3.007,3.007-3.974s9.56-2.47,3.974-4.511-6.844-3.222-7.878-3.866S2264.3,1062.1,2265.367,1062.433Z" transform="translate(-2264.003 -1062.401)" fill="#87594a"/>
        <path id="Path_87942" data-name="Path 87942" d="M2313.827,1062.433c-2.34.727-15.68,5.478-14.821,8.377s10.2,6.659,14.821,6.659c2.255,0-.107-3.007-3.007-3.974s-9.56-2.47-3.974-4.511,6.844-3.222,7.879-3.866S2314.9,1062.1,2313.827,1062.433Z" transform="translate(-2272.575 -1062.401)" fill="#87594a"/>
      </g>
      <path id="Path_87943" data-name="Path 87943" d="M2264.715,1046.914a9.655,9.655,0,0,1-6.853,4,2.337,2.337,0,0,0-2.146,1.806l0,.037c-.14.987,1.02,1.955,2.534,1.794a13.309,13.309,0,0,0,9.449-5.521c.883-1.241.609-2.727-.319-3.089l-.034-.015A2.338,2.338,0,0,0,2264.715,1046.914Z" transform="translate(-2255.701 -1045.808)" fill="#fbd69e" style="mix-blend-mode: multiply;isolation: isolate"/>
      <path id="Path_87944" data-name="Path 87944" d="M2315.678,1046.914a9.652,9.652,0,0,0,6.852,4,2.337,2.337,0,0,1,2.146,1.806l0,.037c.14.987-1.02,1.955-2.534,1.794a13.31,13.31,0,0,1-9.449-5.521c-.883-1.241-.609-2.727.32-3.089l.034-.015A2.338,2.338,0,0,1,2315.678,1046.914Z" transform="translate(-2269.544 -1045.808)" fill="#fbd69e" style="mix-blend-mode: multiply;isolation: isolate"/>
    </g>
  </g>
</svg>
