<svg xmlns="http://www.w3.org/2000/svg" xmlns:xlink="http://www.w3.org/1999/xlink" width="75.004" height="74.999" viewBox="0 0 75.004 74.999">
  <defs>
    <radialGradient id="radial-gradient" cx="0.503" cy="0.427" r="0.5" gradientUnits="objectBoundingBox">
      <stop offset="0" stop-color="#fddb35"/>
      <stop offset="0.482" stop-color="#fcd934"/>
      <stop offset="0.655" stop-color="#fcd232"/>
      <stop offset="0.779" stop-color="#fbc62e"/>
      <stop offset="0.879" stop-color="#f9b528"/>
      <stop offset="0.964" stop-color="#f89f21"/>
      <stop offset="1" stop-color="#f7941e"/>
    </radialGradient>
    <linearGradient id="linear-gradient" y1="0.5" x2="1" y2="0.5" gradientUnits="objectBoundingBox">
      <stop offset="0" stop-color="#2e92db"/>
      <stop offset="0.041" stop-color="#2d98df"/>
      <stop offset="0.197" stop-color="#2baded"/>
      <stop offset="0.351" stop-color="#2ab9f5"/>
      <stop offset="0.5" stop-color="#2abef8"/>
      <stop offset="0.647" stop-color="#2ab9f5"/>
      <stop offset="0.804" stop-color="#2bacec"/>
      <stop offset="0.965" stop-color="#2d97de"/>
      <stop offset="1" stop-color="#2e92db"/>
    </linearGradient>
  </defs>
  <g id="Group_56479" data-name="Group 56479" transform="translate(-2234.048 -521.186)">
    <path id="Path_87875" data-name="Path 87875" d="M2309.049,558.683a37.5,37.5,0,1,1-37.5-37.5A37.5,37.5,0,0,1,2309.049,558.683Z" fill="url(#radial-gradient)"/>
    <path id="Path_87876" data-name="Path 87876" d="M2313.944,567.76a37.5,37.5,0,0,1-59.478,30.383,40.073,40.073,0,0,0,58.624-35.508c0-1.2-.052-2.4-.162-3.578A37.458,37.458,0,0,1,2313.944,567.76Z" transform="translate(-4.892 -9.073)" fill="#fbd69e" style="mix-blend-mode: multiply;isolation: isolate"/>
    <path id="Path_87877" data-name="Path 87877" d="M2280.077,597.142h.281a15.381,15.381,0,0,1,8.87,2.719.6.6,0,0,0,.96-.6c-1.46-4.527-5.324-7.762-9.864-7.762h-.212c-4.54,0-8.4,3.236-9.864,7.762a.6.6,0,0,0,.96.6A15.383,15.383,0,0,1,2280.077,597.142Z" transform="translate(-8.666 -16.847)" fill="#87594a"/>
    <path id="Path_87878" data-name="Path 87878" d="M2250.783,549.62a9.722,9.722,0,0,1,6.735-4.307,2.353,2.353,0,0,0,2.088-1.9l0-.036c.1-1-1.1-1.927-2.623-1.7a13.414,13.414,0,0,0-9.289,5.94c-.838,1.284-.5,2.769.448,3.1l.034.013A2.354,2.354,0,0,0,2250.783,549.62Z" transform="translate(-3.155 -4.899)" fill="#fbd69e" style="mix-blend-mode: multiply;isolation: isolate"/>
    <path id="Path_87879" data-name="Path 87879" d="M2312.046,549.62a9.722,9.722,0,0,0-6.735-4.307,2.353,2.353,0,0,1-2.088-1.9l0-.036c-.1-1,1.106-1.927,2.623-1.7a13.413,13.413,0,0,1,9.289,5.94c.838,1.284.5,2.769-.447,3.1l-.034.013A2.354,2.354,0,0,1,2312.046,549.62Z" transform="translate(-16.571 -4.899)" fill="#fbd69e" style="mix-blend-mode: multiply;isolation: isolate"/>
    <g id="Group_56476" data-name="Group 56476" transform="translate(2250.267 547.574)">
      <ellipse id="Ellipse_906" data-name="Ellipse 906" cx="7.07" cy="7.312" rx="7.07" ry="7.312" transform="translate(0)" fill="#87594a"/>
      <path id="Path_87880" data-name="Path 87880" d="M2266.494,560.94a2.656,2.656,0,1,1-2.656-2.656A2.656,2.656,0,0,1,2266.494,560.94Z" transform="translate(-2256.768 -556.463)" fill="#fff"/>
      <ellipse id="Ellipse_907" data-name="Ellipse 907" cx="7.07" cy="7.312" rx="7.07" ry="7.312" transform="translate(28.428)" fill="#87594a"/>
      <circle id="Ellipse_908" data-name="Ellipse 908" cx="2.656" cy="2.656" r="2.656" transform="translate(32.842 1.821)" fill="#fff"/>
    </g>
    <g id="Group_56477" data-name="Group 56477" transform="translate(2240.641 562.865)" style="mix-blend-mode: multiply;isolation: isolate">
      <path id="Path_87881" data-name="Path 87881" d="M2257.462,599.854a9.49,9.49,0,0,1-5.936,2.258,37.555,37.555,0,0,1-8.808-9.061c-.025-3.125,1.411-6.909,5.391-11.25a16.812,16.812,0,0,0,3.2-5.607.3.3,0,0,1,.551-.018,21.924,21.924,0,0,0,3.05,5.327C2256.823,583.737,2264.967,592.671,2257.462,599.854Z" transform="translate(-2242.719 -575.997)" fill="#fbd69e"/>
    </g>
    <g id="Group_56478" data-name="Group 56478" transform="translate(2240.642 561.599)">
      <path id="Path_87882" data-name="Path 87882" d="M2248.109,580.139a16.9,16.9,0,0,0,3.205-5.611.291.291,0,0,1,.545-.016,22.223,22.223,0,0,0,3.053,5.326c1.913,2.233,10.052,11.172,2.552,18.351-3.989,3.352-9.733,2.874-12.606-.8S2241.087,587.8,2248.109,580.139Z" transform="translate(-2242.72 -574.332)" fill="url(#linear-gradient)"/>
    </g>
  </g>
</svg>
