<svg xmlns="http://www.w3.org/2000/svg" xmlns:xlink="http://www.w3.org/1999/xlink" width="75.986" height="75.986" viewBox="0 0 75.986 75.986">
  <defs>
    <radialGradient id="radial-gradient" cx="0.507" cy="0.433" r="0.5" gradientUnits="objectBoundingBox">
      <stop offset="0" stop-color="#fddb35"/>
      <stop offset="0.482" stop-color="#fcd934"/>
      <stop offset="0.655" stop-color="#fcd232"/>
      <stop offset="0.779" stop-color="#fbc62e"/>
      <stop offset="0.879" stop-color="#f9b528"/>
      <stop offset="0.964" stop-color="#f89f21"/>
      <stop offset="1" stop-color="#f7941e"/>
    </radialGradient>
  </defs>
  <g id="Group_56490" data-name="Group 56490" transform="translate(-1803.409 -692.203)">
    <circle id="Ellipse_917" data-name="Ellipse 917" cx="37.708" cy="37.708" r="37.708" transform="translate(1803.409 692.775) rotate(-0.434)" fill="url(#radial-gradient)"/>
    <path id="Path_87911" data-name="Path 87911" d="M1884,739.2a37.708,37.708,0,0,1-59.808,30.552,40.294,40.294,0,0,0,58.948-35.7c0-1.211-.051-2.414-.163-3.6A37.675,37.675,0,0,1,1884,739.2Z" transform="translate(-4.892 -9.002)" fill="#fbd69e" style="mix-blend-mode: multiply;isolation: isolate"/>
    <path id="Path_87912" data-name="Path 87912" d="M1832.529,721.149a9.776,9.776,0,0,0-7.706,2.287,2.369,2.369,0,0,1-2.823.335l-.029-.023c-.827-.58-.738-2.108.43-3.116a13.482,13.482,0,0,1,10.629-3.154c1.528.207,2.436,1.44,2.06,2.376l-.012.035A2.369,2.369,0,0,1,1832.529,721.149Z" transform="translate(-4.24 -5.92)" fill="#fbd69e" style="mix-blend-mode: multiply;isolation: isolate"/>
    <path id="Path_87913" data-name="Path 87913" d="M1869.434,721.149a9.777,9.777,0,0,1,7.707,2.287,2.368,2.368,0,0,0,2.822.335l.03-.023c.826-.58.737-2.108-.43-3.116a13.48,13.48,0,0,0-10.628-3.154c-1.529.207-2.436,1.44-2.061,2.376l.013.035A2.367,2.367,0,0,0,1869.434,721.149Z" transform="translate(-14.917 -5.92)" fill="#fbd69e" style="mix-blend-mode: multiply;isolation: isolate"/>
    <path id="Path_87914" data-name="Path 87914" d="M1832.282,738.3h.155a7.129,7.129,0,0,1,5.375,2.555.673.673,0,0,0,1.192-.426v-3.381c0-4.836-2.945-8.758-6.578-8.758h-.133c-3.634,0-6.579,3.922-6.579,8.758v3.381a.673.673,0,0,0,1.192.426A7.13,7.13,0,0,1,1832.282,738.3Z" transform="translate(-5.25 -8.494)" fill="#87594a"/>
    <path id="Path_87915" data-name="Path 87915" d="M1869.668,738.3h.154a7.13,7.13,0,0,1,5.376,2.555.673.673,0,0,0,1.192-.426v-3.381c0-4.836-2.945-8.758-6.579-8.758h-.133c-3.633,0-6.578,3.922-6.578,8.758v3.381a.673.673,0,0,0,1.192.426A7.13,7.13,0,0,1,1869.668,738.3Z" transform="translate(-14.049 -8.494)" fill="#87594a"/>
    <g id="Group_56489" data-name="Group 56489" transform="translate(1817.183 737.587)">
      <path id="Path_87916" data-name="Path 87916" d="M1869.854,753.159a23.644,23.644,0,0,1-1.506,6.2,24.1,24.1,0,0,1-22.464,15.355h-.488a24.077,24.077,0,0,1-23.963-21.553,1.453,1.453,0,0,1,1.993-1.493c7.788,3.075,20.091,3.415,22.214,3.415s14.433-.34,22.22-3.415A1.453,1.453,0,0,1,1869.854,753.159Z" transform="translate(-1821.424 -751.558)" fill="#87594a"/>
      <path id="Path_87917" data-name="Path 87917" d="M1869.851,753.16a23.655,23.655,0,0,1-1.5,6.2,57.5,57.5,0,0,1-22.313,4.276h-.8a57.583,57.583,0,0,1-22.3-4.269,24.077,24.077,0,0,1-1.508-6.2,1.458,1.458,0,0,1,2-1.495c7.782,3.073,20.087,3.416,22.213,3.416s14.43-.343,22.219-3.416A1.451,1.451,0,0,1,1869.851,753.16Z" transform="translate(-1821.423 -751.558)" fill="#fff"/>
      <path id="Path_87918" data-name="Path 87918" d="M1823.426,752.81c7.788,3.076,20.091,3.415,22.214,3.415s14.433-.339,22.22-3.415a1.451,1.451,0,0,1,1.918.891c.024-.182.056-.36.076-.543a1.453,1.453,0,0,0-1.993-1.493c-7.787,3.075-20.1,3.415-22.22,3.415s-14.426-.34-22.214-3.415a1.453,1.453,0,0,0-1.993,1.493c.019.183.052.361.075.542A1.452,1.452,0,0,1,1823.426,752.81Z" transform="translate(-1821.424 -751.558)" fill="#87594a"/>
      <path id="Path_87919" data-name="Path 87919" d="M1868.815,761.758a24.1,24.1,0,0,1-22.466,15.353h-.484a24.1,24.1,0,0,1-22.46-15.346,57.583,57.583,0,0,0,22.3,4.269h.8A57.493,57.493,0,0,0,1868.815,761.758Z" transform="translate(-1821.89 -753.958)" fill="#fff"/>
      <path id="Path_87920" data-name="Path 87920" d="M1845.706,767.306h.8a57.852,57.852,0,0,0,21.647-4c.239-.505.462-1.021.667-1.545a57.493,57.493,0,0,1-22.313,4.276h-.8a57.583,57.583,0,0,1-22.3-4.269q.307.786.667,1.545A57.928,57.928,0,0,0,1845.706,767.306Z" transform="translate(-1821.89 -753.958)" fill="#87594a"/>
    </g>
  </g>
</svg>
