<svg xmlns="http://www.w3.org/2000/svg" xmlns:xlink="http://www.w3.org/1999/xlink" width="76.033" height="76.028" viewBox="0 0 76.033 76.028">
  <defs>
    <radialGradient id="radial-gradient" cx="0.503" cy="0.427" r="0.5" gradientUnits="objectBoundingBox">
      <stop offset="0" stop-color="#fddb35"/>
      <stop offset="0.482" stop-color="#fcd934"/>
      <stop offset="0.655" stop-color="#fcd232"/>
      <stop offset="0.779" stop-color="#fbc62e"/>
      <stop offset="0.879" stop-color="#f9b528"/>
      <stop offset="0.964" stop-color="#f89f21"/>
      <stop offset="1" stop-color="#f7941e"/>
    </radialGradient>
    <linearGradient id="linear-gradient" y1="0.5" x2="1" y2="0.5" gradientUnits="objectBoundingBox">
      <stop offset="0" stop-color="#2e92db"/>
      <stop offset="0.041" stop-color="#2d98df"/>
      <stop offset="0.197" stop-color="#2baded"/>
      <stop offset="0.351" stop-color="#2ab9f5"/>
      <stop offset="0.5" stop-color="#2abef8"/>
      <stop offset="0.647" stop-color="#2ab9f5"/>
      <stop offset="0.804" stop-color="#2bacec"/>
      <stop offset="0.965" stop-color="#2d97de"/>
      <stop offset="1" stop-color="#2e92db"/>
    </linearGradient>
  </defs>
  <g id="Group_56496" data-name="Group 56496" transform="translate(-1976.326 -1006.442)">
    <path id="Path_87921" data-name="Path 87921" d="M2052.357,1044.455a38.016,38.016,0,1,1-38.013-38.012A38.011,38.011,0,0,1,2052.357,1044.455Z" transform="translate(0 0)" fill="url(#radial-gradient)"/>
    <path id="Path_87922" data-name="Path 87922" d="M2057.038,1053.135a38.015,38.015,0,0,1-60.294,30.8,40.621,40.621,0,0,0,59.428-36c0-1.221-.052-2.433-.164-3.628A37.986,37.986,0,0,1,2057.038,1053.135Z" transform="translate(-4.679 -8.677)" fill="#fbd69e" style="mix-blend-mode: multiply;isolation: isolate"/>
    <path id="Path_87923" data-name="Path 87923" d="M2004.231,1031.288a9.859,9.859,0,0,1-7.547,2.952,2.386,2.386,0,0,0-2.453,1.481l-.01.036c-.3.973.718,2.134,2.271,2.213a13.6,13.6,0,0,0,10.41-4.07c1.087-1.112,1.047-2.654.167-3.167l-.031-.021A2.388,2.388,0,0,0,2004.231,1031.288Z" transform="translate(-4.089 -5.504)" fill="#fbd69e" style="mix-blend-mode: multiply;isolation: isolate"/>
    <path id="Path_87924" data-name="Path 87924" d="M2043.033,1031.288a9.857,9.857,0,0,0,7.548,2.952,2.386,2.386,0,0,1,2.453,1.481l.009.036c.3.973-.718,2.134-2.271,2.213a13.594,13.594,0,0,1-10.41-4.07c-1.088-1.112-1.047-2.654-.168-3.167l.032-.021A2.389,2.389,0,0,1,2043.033,1031.288Z" transform="translate(-14.485 -5.504)" fill="#fbd69e" style="mix-blend-mode: multiply;isolation: isolate"/>
    <g id="Group_56491" data-name="Group 56491" transform="translate(1996.481 1035.681)">
      <ellipse id="Ellipse_918" data-name="Ellipse 918" cx="6.34" cy="6.557" rx="6.34" ry="6.557" transform="translate(0 0)" fill="#87594a"/>
      <path id="Path_87925" data-name="Path 87925" d="M2012.371,1048.873a2.382,2.382,0,1,1-2.382-2.382A2.381,2.381,0,0,1,2012.371,1048.873Z" transform="translate(-2003.649 -1044.858)" fill="#fff"/>
    </g>
    <g id="Group_56492" data-name="Group 56492" transform="translate(2019.528 1035.681)">
      <ellipse id="Ellipse_919" data-name="Ellipse 919" cx="6.34" cy="6.557" rx="6.34" ry="6.557" transform="translate(0 0)" fill="#87594a"/>
      <path id="Path_87926" data-name="Path 87926" d="M2037.505,1048.873a2.382,2.382,0,1,0,2.382-2.382A2.382,2.382,0,0,0,2037.505,1048.873Z" transform="translate(-2033.547 -1044.858)" fill="#fff"/>
    </g>
    <g id="Group_56493" data-name="Group 56493" transform="translate(1983.01 1048.693)" style="mix-blend-mode: multiply;isolation: isolate">
      <path id="Path_87927" data-name="Path 87927" d="M1999.942,1085.436a9.615,9.615,0,0,1-6.017,2.29,38.07,38.07,0,0,1-8.929-9.185c-.025-3.169,1.43-7,5.465-11.405a17.058,17.058,0,0,0,3.245-5.683.3.3,0,0,1,.558-.019,22.227,22.227,0,0,0,3.092,5.4C1999.295,1069.1,2007.55,1078.156,1999.942,1085.436Z" transform="translate(-1984.997 -1061.253)" fill="#fbd69e"/>
    </g>
    <g id="Group_56494" data-name="Group 56494" transform="translate(1983.011 1047.41)">
      <path id="Path_87928" data-name="Path 87928" d="M1990.461,1065.474a17.085,17.085,0,0,0,3.248-5.688.3.3,0,0,1,.554-.015,22.549,22.549,0,0,0,3.1,5.4c1.939,2.262,10.19,11.325,2.587,18.6-4.044,3.4-9.866,2.913-12.78-.809S1983.342,1073.241,1990.461,1065.474Z" transform="translate(-1984.998 -1059.588)" fill="url(#linear-gradient)"/>
    </g>
    <g id="Group_56495" data-name="Group 56495" transform="translate(2002.404 1060.738)">
      <path id="Path_87929" data-name="Path 87929" d="M2033.5,1085.142c-1.24,1.59-3.635,2.173-6.055,2.542l-.251.038-.163.023c-.308.045-.615.086-.92.127a35.376,35.376,0,0,1-3.6.224c-.139,0-.277,0-.415,0s-.277,0-.416,0a35.367,35.367,0,0,1-3.6-.224c-.3-.041-.611-.082-.918-.127l-.164-.023c-.084-.011-.166-.025-.25-.038-2.42-.369-4.816-.952-6.057-2.542a2.742,2.742,0,0,1-.273-2.814,4.435,4.435,0,0,1,.707-1.207c1.728-2.175,5.856-4.277,10.969-4.244,5.112-.033,9.24,2.069,10.968,4.244a4.43,4.43,0,0,1,.707,1.207A2.742,2.742,0,0,1,2033.5,1085.142Z" transform="translate(-2010.156 -1076.878)" fill="#87594a"/>
      <path id="Path_87930" data-name="Path 87930" d="M2029.4,1090.31l-.251.038-.163.023c-.308.045-.615.086-.92.127a35.367,35.367,0,0,1-3.6.224c-.139,0-.277,0-.416,0s-.277,0-.416,0a35.376,35.376,0,0,1-3.6-.224c-.3-.041-.611-.082-.918-.127l-.164-.023c-.084-.011-.166-.025-.25-.038a8.22,8.22,0,0,1,10.693,0Z" transform="translate(-2012.115 -1079.503)" fill="#ee6571"/>
      <path id="Path_87931" data-name="Path 87931" d="M2033.35,1081.122h-21.937c1.728-2.175,5.856-4.277,10.969-4.244C2027.494,1076.845,2031.622,1078.947,2033.35,1081.122Z" transform="translate(-2010.444 -1076.878)" fill="#fff"/>
    </g>
  </g>
</svg>
