<svg xmlns="http://www.w3.org/2000/svg" xmlns:xlink="http://www.w3.org/1999/xlink" width="75.963" height="75.963" viewBox="0 0 75.963 75.963">
  <defs>
    <radialGradient id="radial-gradient" cx="0.59" cy="0.491" r="0.5" gradientUnits="objectBoundingBox">
      <stop offset="0" stop-color="#fddb35"/>
      <stop offset="0.482" stop-color="#fcd934"/>
      <stop offset="0.655" stop-color="#fcd232"/>
      <stop offset="0.779" stop-color="#fbc62e"/>
      <stop offset="0.879" stop-color="#f9b528"/>
      <stop offset="0.964" stop-color="#f89f21"/>
      <stop offset="1" stop-color="#f7941e"/>
    </radialGradient>
  </defs>
  <g id="Group_56488" data-name="Group 56488" transform="translate(-1797.144 -515)">
    <circle id="Ellipse_916" data-name="Ellipse 916" cx="37.705" cy="37.705" r="37.705" transform="translate(1797.144 590.408) rotate(-89.578)" fill="url(#radial-gradient)"/>
    <path id="Path_87903" data-name="Path 87903" d="M1877.723,561.986a37.706,37.706,0,0,1-59.8,30.549,40.292,40.292,0,0,0,58.946-35.7c0-1.211-.052-2.413-.164-3.6A37.669,37.669,0,0,1,1877.723,561.986Z" transform="translate(-4.89 -9.001)" fill="#fbd69e" style="mix-blend-mode: multiply;isolation: isolate"/>
    <path id="Path_87904" data-name="Path 87904" d="M1859.163,590.537c.092,3.235-1.593,4.877-3.58,4.766a3.7,3.7,0,0,1-.8-.136,5.526,5.526,0,0,1-2.62-1.783c-2.922-3.383-7.146-2.9-10.837-2.9s-7.921-.486-10.842,2.9a5.526,5.526,0,0,1-2.621,1.783,4.13,4.13,0,0,1-.793.136c-1.993.116-3.684-1.525-3.579-4.766a12.814,12.814,0,0,1,1.365-5.541c3.432-6.759,12.417-8.961,16.47-8.961s13.038,2.2,16.47,8.961A12.811,12.811,0,0,1,1859.163,590.537Z" transform="translate(-6.202 -14.368)" fill="#87594a"/>
    <path id="Path_87905" data-name="Path 87905" d="M1856.687,598.916a3.708,3.708,0,0,1-.8-.136,5.526,5.526,0,0,1-2.62-1.783c-2.922-3.383-7.146-2.9-10.837-2.9s-7.921-.486-10.842,2.9a5.526,5.526,0,0,1-2.62,1.783,4.14,4.14,0,0,1-.793.136c2.453-5.425,7.909-7.534,14.255-7.534S1854.233,593.491,1856.687,598.916Z" transform="translate(-7.305 -17.981)" fill="#ee6571"/>
    <path id="Path_87906" data-name="Path 87906" d="M1857.6,583.495c-.375.161-.759.319-1.154.469a34.542,34.542,0,0,0-28.833,0c-.395-.151-.779-.309-1.154-.469,3.906-5.588,11.834-7.459,15.57-7.459S1853.69,577.906,1857.6,583.495Z" transform="translate(-6.9 -14.368)" fill="#fff"/>
    <path id="Path_87907" data-name="Path 87907" d="M1829,537.364a9.777,9.777,0,0,1-6.94,4.056,2.368,2.368,0,0,0-2.175,1.83l0,.037c-.142,1,1.034,1.98,2.567,1.818a13.485,13.485,0,0,0,9.572-5.594c.895-1.257.617-2.762-.324-3.129l-.034-.015A2.367,2.367,0,0,0,1829,537.364Z" transform="translate(-5.351 -5.001)" fill="#fbd69e" style="mix-blend-mode: multiply;isolation: isolate"/>
    <path id="Path_87908" data-name="Path 87908" d="M1860.727,537.364a9.776,9.776,0,0,0,6.94,4.056,2.369,2.369,0,0,1,2.175,1.83l0,.037c.142,1-1.033,1.98-2.567,1.818a13.489,13.489,0,0,1-9.572-5.594c-.894-1.257-.616-2.762.324-3.129l.034-.015A2.367,2.367,0,0,1,1860.727,537.364Z" transform="translate(-14.129 -5.001)" fill="#fbd69e" style="mix-blend-mode: multiply;isolation: isolate"/>
    <path id="Path_87909" data-name="Path 87909" d="M1825.624,556.589a12.72,12.72,0,0,1-7.846.326.666.666,0,0,0-.731,1.02,8.913,8.913,0,0,0,16.1-5.678.666.666,0,0,0-1.209-.336A12.721,12.721,0,0,1,1825.624,556.589Z" transform="translate(-4.657 -8.624)" fill="#87594a"/>
    <path id="Path_87910" data-name="Path 87910" d="M1863.014,556.589a12.721,12.721,0,0,0,7.846.326.665.665,0,0,1,.73,1.02,8.913,8.913,0,0,1-16.1-5.678.666.666,0,0,1,1.209-.336A12.714,12.714,0,0,0,1863.014,556.589Z" transform="translate(-13.73 -8.624)" fill="#87594a"/>
  </g>
</svg>
