<svg xmlns="http://www.w3.org/2000/svg" xmlns:xlink="http://www.w3.org/1999/xlink" width="74.157" height="74.157" viewBox="0 0 74.157 74.157">
  <defs>
    <radialGradient id="radial-gradient" cx="0.587" cy="0.494" r="0.5" gradientUnits="objectBoundingBox">
      <stop offset="0" stop-color="#fddb35"/>
      <stop offset="0.482" stop-color="#fcd934"/>
      <stop offset="0.655" stop-color="#fcd232"/>
      <stop offset="0.779" stop-color="#fbc62e"/>
      <stop offset="0.879" stop-color="#f9b528"/>
      <stop offset="0.964" stop-color="#f89f21"/>
      <stop offset="1" stop-color="#f7941e"/>
    </radialGradient>
  </defs>
  <g id="Group_56506" data-name="Group 56506" transform="translate(-1803.417 -346.748)">
    <circle id="Ellipse_925" data-name="Ellipse 925" cx="36.805" cy="36.805" r="36.805" transform="translate(1803.417 420.356) rotate(-89.572)" fill="url(#radial-gradient)"/>
    <path id="Path_87945" data-name="Path 87945" d="M1882.573,393.53a36.806,36.806,0,0,1-58.377,29.82,39.33,39.33,0,0,0,57.538-34.85c0-1.182-.05-2.356-.159-3.513A36.783,36.783,0,0,1,1882.573,393.53Z" transform="translate(-5.271 -9.7)" fill="#fbd69e" style="mix-blend-mode: multiply;isolation: isolate"/>
    <g id="Group_56505" data-name="Group 56505" transform="translate(1813.905 358.807)">
      <g id="Group_56503" data-name="Group 56503" transform="translate(0 9.129)">
        <ellipse id="Ellipse_926" data-name="Ellipse 926" cx="12.123" cy="12.538" rx="12.123" ry="12.538" fill="#fff"/>
        <path id="Path_87946" data-name="Path 87946" d="M1836.721,390.388a4.555,4.555,0,1,1-4.555-4.555A4.555,4.555,0,0,1,1836.721,390.388Z" transform="translate(-1820.042 -377.85)" fill="#87594a"/>
      </g>
      <g id="Group_56504" data-name="Group 56504" transform="translate(28.933 9.129)">
        <ellipse id="Ellipse_927" data-name="Ellipse 927" cx="12.123" cy="12.538" rx="12.123" ry="12.538" fill="#fff"/>
        <path id="Path_87947" data-name="Path 87947" d="M1866.378,390.388a4.555,4.555,0,1,0,4.555-4.555A4.555,4.555,0,0,0,1866.378,390.388Z" transform="translate(-1858.81 -377.85)" fill="#87594a"/>
      </g>
      <path id="Path_87948" data-name="Path 87948" d="M1822.925,368.423a9.544,9.544,0,0,1,7.66-1.7,2.311,2.311,0,0,0,2.567-1.052l.014-.033c.431-.887-.369-2.149-1.843-2.455a13.164,13.164,0,0,0-10.564,2.346c-1.206.9-1.4,2.383-.631,3l.027.024A2.309,2.309,0,0,0,1822.925,368.423Z" transform="translate(-1818.028 -362.905)" fill="#fbd69e" style="mix-blend-mode: multiply;isolation: isolate"/>
      <path id="Path_87949" data-name="Path 87949" d="M1878.644,368.423a9.543,9.543,0,0,0-7.66-1.7,2.311,2.311,0,0,1-2.567-1.052l-.014-.033c-.43-.887.37-2.149,1.844-2.455a13.164,13.164,0,0,1,10.564,2.346c1.206.9,1.4,2.383.631,3l-.027.024A2.31,2.31,0,0,1,1878.644,368.423Z" transform="translate(-1830.36 -362.905)" fill="#fbd69e" style="mix-blend-mode: multiply;isolation: isolate"/>
    </g>
    <path id="Path_87950" data-name="Path 87950" d="M1857.576,423.832a7.667,7.667,0,0,1-3.561,6.617,6.262,6.262,0,0,1-2.874.89c-.116.008-.233.01-.349.01s-.233,0-.349-.01a6.26,6.26,0,0,1-2.874-.89,7.668,7.668,0,0,1-3.561-6.617,6.8,6.8,0,0,1,.719-3.157,7.2,7.2,0,0,1,12.13,0A6.8,6.8,0,0,1,1857.576,423.832Z" transform="translate(-10.296 -17.909)" fill="#87594a"/>
  </g>
</svg>
