<svg id="clock" xmlns="http://www.w3.org/2000/svg" width="52.266" height="52.266" viewBox="0 0 52.266 52.266">
  <path id="Path_87660" data-name="Path 87660" d="M27.133,1A26.133,26.133,0,1,0,53.266,27.133,26.133,26.133,0,0,0,27.133,1Zm0,47.514A21.381,21.381,0,1,1,48.514,27.133,21.381,21.381,0,0,1,27.133,48.514Z" transform="translate(-1 -1)" fill="#fff"/>
  <path id="Path_87661" data-name="Path 87661" d="M15.751,20.646V7.376a2.376,2.376,0,1,0-4.751,0V21.63a2.375,2.375,0,0,0,.7,1.679l7.127,7.127a2.376,2.376,0,1,0,3.36-3.36Z" transform="translate(12.757 4.503)" fill="#fff"/>
</svg>
