<svg xmlns="http://www.w3.org/2000/svg" width="94.014" height="94.001" viewBox="0 0 94.014 94.001">
  <g id="play-button" transform="translate(0 -0.001)">
    <path id="Path_87650" data-name="Path 87650" d="M35.807,24.4,16.286,10.209a2.354,2.354,0,0,0-3.739,1.9V40.48a2.347,2.347,0,0,0,1.286,2.1,2.371,2.371,0,0,0,1.07.253,2.34,2.34,0,0,0,1.383-.457L35.807,28.2a2.335,2.335,0,0,0,0-3.8Z" transform="translate(26.706 20.764)" fill="#fff"/>
    <path id="Path_87651" data-name="Path 87651" d="M47.009,0A47,47,0,1,0,94.014,47.01,47,47,0,0,0,47.009,0Zm0,86.158a39.156,39.156,0,1,1,39.15-39.15A39.15,39.15,0,0,1,47.009,86.16Z" transform="translate(0 -0.001)" fill="#fff"/>
  </g>
</svg>
