<svg xmlns="http://www.w3.org/2000/svg" xmlns:xlink="http://www.w3.org/1999/xlink" width="64" height="64" viewBox="0 0 64 64">
  <defs>
    <filter id="Ellipse_42" x="0" y="0" width="64" height="64" filterUnits="userSpaceOnUse">
      <feOffset dy="9" input="SourceAlpha"/>
      <feGaussianBlur stdDeviation="3" result="blur"/>
      <feFlood flood-opacity="0.161"/>
      <feComposite operator="in" in2="blur"/>
      <feComposite in="SourceGraphic"/>
    </filter>
  </defs>
  <g id="Group_55909" data-name="Group 55909" transform="translate(8.641 -0.393)">
    <g transform="matrix(1, 0, 0, 1, -8.64, 0.39)" filter="url(#Ellipse_42)">
      <circle id="Ellipse_42-2" data-name="Ellipse 42" cx="23" cy="23" r="23" transform="translate(9 0)" fill="#fff"/>
    </g>
    <g id="Group_55908" data-name="Group 55908" transform="translate(11.684 15.932)">
      <path id="Path_87668" data-name="Path 87668" d="M155.669,325.91a1.28,1.28,0,0,1-.9-.372,10.44,10.44,0,0,0-14.423,0,1.275,1.275,0,0,1-1.8-1.8,12.744,12.744,0,0,1,18.028,0,1.276,1.276,0,0,1,0,1.8A1.259,1.259,0,0,1,155.669,325.91Z" transform="translate(-136.202 -308.817)" fill="#444"/>
      <ellipse id="Ellipse_43" data-name="Ellipse 43" cx="3" cy="1.5" rx="3" ry="1.5" transform="translate(-0.325 0.46)" fill="#444"/>
      <ellipse id="Ellipse_44" data-name="Ellipse 44" cx="3.5" cy="1.5" rx="3.5" ry="1.5" transform="translate(13.675 0.46)" fill="#444"/>
    </g>
  </g>
</svg>
