<svg id="Group_56141" data-name="Group 56141" xmlns="http://www.w3.org/2000/svg" xmlns:xlink="http://www.w3.org/1999/xlink" width="34.01" height="34.324" viewBox="0 0 34.01 34.324">
  <defs>
    <radialGradient id="radial-gradient" cx="0.498" cy="0.416" r="0.5" gradientUnits="objectBoundingBox">
      <stop offset="0" stop-color="#fddb35"/>
      <stop offset="0.482" stop-color="#fcd934"/>
      <stop offset="0.655" stop-color="#fcd232"/>
      <stop offset="0.779" stop-color="#fbc62e"/>
      <stop offset="0.879" stop-color="#f9b528"/>
      <stop offset="0.964" stop-color="#f89f21"/>
      <stop offset="1" stop-color="#f7941e"/>
    </radialGradient>
  </defs>
  <rect id="Rectangle_23656" data-name="Rectangle 23656" width="33.14" height="34.324" transform="translate(0.435)" fill="#fff" opacity="0"/>
  <g id="Group_56140" data-name="Group 56140" transform="translate(0 0.157)">
    <circle id="Ellipse_823" data-name="Ellipse 823" cx="17.005" cy="17.005" r="17.005" transform="translate(0 0)" fill="url(#radial-gradient)"/>
    <path id="Path_87707" data-name="Path 87707" d="M1127.423,69.835a17,17,0,0,1-26.971,13.777,18.171,18.171,0,0,0,26.584-16.1c0-.546-.024-1.089-.074-1.623A16.973,16.973,0,0,1,1127.423,69.835Z" transform="translate(-1093.413 -52.829)" fill="#fbd69e" style="mix-blend-mode: multiply;isolation: isolate"/>
    <path id="Path_87708" data-name="Path 87708" d="M1102.69,50.759a4.41,4.41,0,0,0-3.475,1.031,1.067,1.067,0,0,1-1.273.151l-.013-.01c-.372-.262-.333-.951.194-1.405a6.081,6.081,0,0,1,4.793-1.422c.689.093,1.1.649.929,1.072l-.005.016A1.067,1.067,0,0,1,1102.69,50.759Z" transform="translate(-1091.599 -41.795)" fill="#fbd69e" style="mix-blend-mode: multiply;isolation: isolate"/>
    <path id="Path_87709" data-name="Path 87709" d="M1144.238,50.759a4.41,4.41,0,0,1,3.475,1.031,1.068,1.068,0,0,0,1.273.151l.013-.01c.373-.262.333-.951-.194-1.405a6.082,6.082,0,0,0-4.793-1.422c-.689.093-1.1.649-.929,1.072l.005.016A1.068,1.068,0,0,0,1144.238,50.759Z" transform="translate(-1121.32 -41.795)" fill="#fbd69e" style="mix-blend-mode: multiply;isolation: isolate"/>
    <g id="Group_56139" data-name="Group 56139" transform="translate(7.353 10.855)">
      <ellipse id="Ellipse_824" data-name="Ellipse 824" cx="3.206" cy="3.316" rx="3.206" ry="3.316" transform="translate(0 0)" fill="#87594a"/>
      <path id="Path_87710" data-name="Path 87710" d="M1109.577,63.093a1.2,1.2,0,1,1-1.2-1.2A1.2,1.2,0,0,1,1109.577,63.093Z" transform="translate(-1105.167 -61.063)" fill="#fff"/>
      <ellipse id="Ellipse_825" data-name="Ellipse 825" cx="3.206" cy="3.316" rx="3.206" ry="3.316" transform="translate(12.891 0)" fill="#87594a"/>
      <circle id="Ellipse_826" data-name="Ellipse 826" cx="1.205" cy="1.205" r="1.205" transform="translate(14.893 0.826)" fill="#fff"/>
    </g>
    <path id="Path_87711" data-name="Path 87711" d="M1119.832,89.9a10.273,10.273,0,0,1-.491,1.487,10.76,10.76,0,0,1-6.036,5.869,11.056,11.056,0,0,1-8,0,10.778,10.778,0,0,1-6.036-5.869,10.438,10.438,0,0,1-.491-1.487.877.877,0,0,1,.855-1.083h19.34A.877.877,0,0,1,1119.832,89.9Z" transform="translate(-1092.303 -67.849)" fill="#87594a"/>
    <path id="Path_87712" data-name="Path 87712" d="M1125.757,110.874a11.059,11.059,0,0,1-8,0,6.92,6.92,0,0,1,8,0Z" transform="translate(-1104.754 -81.469)" fill="#ee6571"/>
  </g>
</svg>
