<svg xmlns="http://www.w3.org/2000/svg" xmlns:xlink="http://www.w3.org/1999/xlink" width="105" height="105" viewBox="0 0 105 105">
  <defs>
    <clipPath id="clip-path">
      <rect id="Rectangle_17795" data-name="Rectangle 17795" width="105" height="105" transform="translate(-0.314 -0.008)" />
    </clipPath>
  </defs>
  <g id="Mask_Group_19" data-name="Mask Group 19" transform="translate(0.314 0.008)" clip-path="url(#clip-path)">
    <path id="anger" d="M80.062,27.371a52.649,52.649,0,1,0,37.271,15.421A52.691,52.691,0,0,0,80.062,27.371ZM56.256,76.661a6.676,6.676,0,0,1,2.225-5L51.89,69.649a3.359,3.359,0,0,1-2.267-4.2,3.4,3.4,0,0,1,4.2-2.267l16.794,5.08a3.4,3.4,0,0,1-.966,6.634h-.378a8.4,8.4,0,0,1,.378,1.763,6.844,6.844,0,0,1-13.645,0Zm35.729,32.79a16.038,16.038,0,0,0-23.848,0,3.4,3.4,0,0,1-5.248-4.2,22.294,22.294,0,0,1,34.3,0,3.4,3.4,0,0,1-5.206,4.2Zm16.248-39.76-6.592,1.973a6.718,6.718,0,0,1,2.267,4.954,6.8,6.8,0,1,1-13.6,0,6.255,6.255,0,0,1,.336-1.763h-.336A3.4,3.4,0,0,1,89.3,68.222l17-4.954a3.4,3.4,0,0,1,4.2,2.267A3.359,3.359,0,0,1,108.234,69.691Z" transform="translate(-27.866 -27.847)" />
  </g>
</svg>
