<svg xmlns="http://www.w3.org/2000/svg" width="117" height="117" viewBox="0 0 117 117">
  <g id="Group_55886" data-name="Group 55886" transform="translate(-43.797 -359.797)">
    <rect id="Rectangle_23429" data-name="Rectangle 23429" width="117" height="117" transform="translate(43.797 359.797)"  opacity="0"/>
    <g id="anxiety" transform="translate(50.334 368.048)">
      <path id="Path_87612" data-name="Path 87612" d="M41.037,61.158a20.625,20.625,0,0,0,20.6-20.6v-14.8a1.7,1.7,0,0,0-.941-1.523A31.981,31.981,0,0,1,47.6,12.882c-8.691,9.488-23.017,11.706-29.057,12.23A1.7,1.7,0,0,0,17,26.828V40.564A20.625,20.625,0,0,0,37.6,61.158Zm8.672-33.164a1.717,1.717,0,0,1,2.172-1.087l5.151,1.717a1.717,1.717,0,0,1-.543,3.346c-.4,0-.132.05-5.693-1.8A1.717,1.717,0,0,1,49.709,27.994Zm1.629,5.693c5.1,0,6.729,6.868,3.434,6.868a1.717,1.717,0,0,1-1.717-1.717,1.717,1.717,0,1,0-3.434,0A1.717,1.717,0,0,1,47.9,40.555C44.627,40.555,46.23,33.687,51.338,33.687ZM37.6,45.706h3.434a1.717,1.717,0,1,1,0,3.434H37.6a1.717,1.717,0,0,1,0-3.434ZM21.608,28.624l5.151-1.717a1.719,1.719,0,0,1,1.085,3.262c-5.522,1.839-5.3,1.8-5.693,1.8a1.717,1.717,0,0,1-.543-3.346Zm5.693,8.5a1.717,1.717,0,0,0-1.717,1.717,1.717,1.717,0,0,1-1.717,1.717c-3.278,0-1.674-6.868,3.434-6.868s6.729,6.868,3.434,6.868a1.717,1.717,0,0,1-1.717-1.717A1.717,1.717,0,0,0,27.3,37.121ZM34.169,54.29a4.268,4.268,0,0,0-2.232,1.219,1.717,1.717,0,1,1-2.423-2.433,7.554,7.554,0,0,1,4.655-2.22,7.529,7.529,0,0,1,3.343,1.03,5.209,5.209,0,0,0,1.808.687c1.068,0,2.993-1.717,5.151-1.717a7.554,7.554,0,0,1,4.648,2.22A1.717,1.717,0,0,1,46.7,55.508a4.273,4.273,0,0,0-2.232-1.217,5.209,5.209,0,0,0-1.808.687,5.88,5.88,0,0,1-6.686,0A5.209,5.209,0,0,0,34.169,54.29Z" transform="translate(12.229 9.24)" />
      <path id="Path_87613" data-name="Path 87613" d="M13.93,28.1a3.434,3.434,0,0,0,2.776,5.771A39.575,39.575,0,0,1,16.432,27,3.363,3.363,0,0,0,13.93,28.1Z" transform="translate(9.363 19.361)" />
      <path id="Path_87614" data-name="Path 87614" d="M22.483,55.256c6.353,4.34,19.456,4.339,25.812,0a41.266,41.266,0,0,0-5.089-2.089,8.069,8.069,0,0,1-4.383-6.7V42.949a58,58,0,0,1-6.868,0V46.47a8.069,8.069,0,0,1-4.383,6.7,43.523,43.523,0,0,0-5.089,2.089Z" transform="translate(16.16 30.795)" />
      <path id="Path_87615" data-name="Path 87615" d="M13.137,48.156c1.143,9.716,1.671,25.791-7.53,28.985a22.371,22.371,0,0,0,20.155,9.453,33.421,33.421,0,0,1,12.454-7.2,4.579,4.579,0,0,0,2.4-3.571v-4a24.105,24.105,0,0,1-17.873-16.6H21.734a6.868,6.868,0,0,1,0-13.735V34.621a5.11,5.11,0,0,1,4.692-5.128c5.98-.515,20.7-2.8,28.272-12.889A1.717,1.717,0,0,1,57.667,17c.026.065,3.018,7.158,12.722,11.96a5.166,5.166,0,0,1,2.852,4.6v7.93a6.868,6.868,0,0,1,0,13.735H72.228a24.105,24.105,0,0,1-17.873,16.6v4a4.577,4.577,0,0,0,2.4,3.571,33.421,33.421,0,0,1,12.449,7.2A22.376,22.376,0,0,0,89.365,77.14c-9.208-3.2-8.67-19.293-7.53-28.985C83.7,32.291,81.1,20.266,74.108,12.411,66.061,3.353,53.974,2,47.487,2S28.914,3.353,20.857,12.411C13.872,20.266,11.275,32.291,13.137,48.156Z" transform="translate(4.061 1.439)" />
      <path id="Path_87616" data-name="Path 87616" d="M47.541,32.86A3.434,3.434,0,0,0,45.115,27a40.367,40.367,0,0,1-.275,6.868h.275A3.4,3.4,0,0,0,47.541,32.86Z" transform="translate(32.187 19.361)" />
      <path id="Path_87617" data-name="Path 87617" d="M56.114,51.2c-7.661,6.442-24.562,6.45-32.233,0a16.3,16.3,0,0,0-7.826,11.675H63.929A16.278,16.278,0,0,0,56.114,51.2Z" transform="translate(11.551 36.71)" />
      <path id="Path_87618" data-name="Path 87618" d="M56.7,27.8l.846,1a5.182,5.182,0,0,1-.048,6.727l-.858.982a8.639,8.639,0,0,0-.079,11.211l.846,1a5.18,5.18,0,0,1-.048,6.725A1.717,1.717,0,0,0,59.942,57.7a8.638,8.638,0,0,0,.079-11.21l-.846-1a5.182,5.182,0,0,1,.048-6.727l.858-.984a8.638,8.638,0,0,0,.079-11.21l-.846-1a5.183,5.183,0,0,1,.048-6.727,1.717,1.717,0,1,0-2.586-2.259A8.638,8.638,0,0,0,56.7,27.8Z" transform="translate(39.136 11.475)" />
      <path id="Path_87619" data-name="Path 87619" d="M3.963,28.8A5.182,5.182,0,0,1,4,35.525l-.848.994a8.639,8.639,0,0,0,.069,11.21l.858.986a5.183,5.183,0,0,1,.038,6.727,1.718,1.718,0,0,0,2.613,2.232,8.636,8.636,0,0,0-.064-11.21l-.858-.986a5.18,5.18,0,0,1-.038-6.725l.846-1a8.636,8.636,0,0,0-.064-11.21L5.7,25.562a5.183,5.183,0,0,1-.038-6.727A1.719,1.719,0,1,0,3.045,16.6a8.638,8.638,0,0,0,.065,11.21Z" transform="translate(0.767 11.475)" />
      <path id="Path_87620" data-name="Path 87620" d="M67.4,51.124l-1.149-.1a11.345,11.345,0,0,0-9.671,4.517l-.659.946a7.979,7.979,0,0,1-6.572,3.068,1.717,1.717,0,0,0-.288,3.422,11.371,11.371,0,0,0,9.671-4.517l.658-.939a7.941,7.941,0,0,1,6.569-3.068l1.145.1a1.717,1.717,0,0,0,.3-3.42Z" transform="translate(34.086 36.573)" />
      <path id="Path_87621" data-name="Path 87621" d="M19.636,59.546a7.978,7.978,0,0,1-6.571-3.061l-.661-.943a11.373,11.373,0,0,0-9.673-4.514l-1.145.1a1.717,1.717,0,1,0,.3,3.42l1.142-.1a7.975,7.975,0,0,1,6.571,3.066l.661.943a11.363,11.363,0,0,0,9.67,4.515,1.717,1.717,0,0,0-.288-3.422Z" transform="translate(0.024 36.576)" />
      <path id="Path_87622" data-name="Path 87622" d="M6.1,19.93a1.717,1.717,0,0,0,1.834-1.59L8.012,17.2a7.956,7.956,0,0,1,4.059-6.009l1.03-.5a11.371,11.371,0,0,0,5.99-8.839,1.722,1.722,0,1,0-3.434-.254A7.951,7.951,0,0,1,11.6,7.6l-1.03.506A11.364,11.364,0,0,0,4.59,16.95L4.508,18.1A1.717,1.717,0,0,0,6.1,19.93Z" transform="translate(3.27 0.003)" />
      <path id="Path_87623" data-name="Path 87623" d="M52.987,10.688l1.03.5A7.949,7.949,0,0,1,58.079,17.2l.082,1.145a1.717,1.717,0,1,0,3.425-.244L61.5,16.95a11.371,11.371,0,0,0-5.98-8.844l-1.03-.5a7.958,7.958,0,0,1-4.059-6.014A1.722,1.722,0,0,0,47,1.846,11.369,11.369,0,0,0,52.987,10.688Z" transform="translate(33.734 0.003)" />
    </g>
  </g>
</svg>
