<svg xmlns="http://www.w3.org/2000/svg" xmlns:xlink="http://www.w3.org/1999/xlink" width="60" height="59" viewBox="0 0 60 59">
  <defs>
    <filter id="Background" x="0" y="0" width="60" height="59" filterUnits="userSpaceOnUse">
      <feOffset dy="6" input="SourceAlpha"/>
      <feGaussianBlur stdDeviation="3" result="blur"/>
      <feFlood flood-opacity="0.161"/>
      <feComposite operator="in" in2="blur"/>
      <feComposite in="SourceGraphic"/>
    </filter>
  </defs>
  <g id="Group_55907" data-name="Group 55907" transform="translate(9.244 3.153)">
    <g transform="matrix(1, 0, 0, 1, -9.24, -3.15)" filter="url(#Background)">
      <ellipse id="Background-2" data-name="Background" cx="21" cy="20.5" rx="21" ry="20.5" transform="translate(9 3)" fill="#fff"/>
    </g>
    <g id="Face" transform="translate(9.752 12.903)">
      <path id="Mouth" d="M50.47,107.642a11.756,11.756,0,0,1-11.113-7.917,1.394,1.394,0,1,1,2.633-.912,8.966,8.966,0,0,0,16.96,0,1.394,1.394,0,1,1,2.632.913,11.756,11.756,0,0,1-11.112,7.916Z" transform="translate(-39.263 -87.801)" fill="#444"/>
      <circle id="Ellipse_40" data-name="Ellipse 40" cx="2.672" cy="2.672" r="2.672" transform="translate(15.273)" fill="#444"/>
      <circle id="Ellipse_41" data-name="Ellipse 41" cx="2.672" cy="2.672" r="2.672" transform="translate(1.797)" fill="#444"/>
    </g>
  </g>
</svg>
