<svg id="next_2_" data-name="next (2)" xmlns="http://www.w3.org/2000/svg" width="25.904" height="25.904" viewBox="0 0 25.904 25.904">
  <g id="Group_55428" data-name="Group 55428" transform="translate(7.971 0)">
    <g id="Group_55427" data-name="Group 55427" transform="translate(0 0)">
      <path id="Path_85334" data-name="Path 85334" d="M.4,12.156,16.342.2a1,1,0,0,1,1.594.8V24.908a1,1,0,0,1-.55.891,1.013,1.013,0,0,1-.446.106,1,1,0,0,1-.6-.2L.4,13.75a1,1,0,0,1,0-1.594Z" transform="translate(-0.002 0)" fill="#fff"/>
    </g>
  </g>
  <g id="Group_55430" data-name="Group 55430" transform="translate(0 0)">
    <g id="Group_55429" data-name="Group 55429" transform="translate(0 0)">
      <path id="Path_85335" data-name="Path 85335" d="M353,0h1.993a1,1,0,0,1,1,1V24.912a1,1,0,0,1-1,1H353a1,1,0,0,1-1-1V1A1,1,0,0,1,353,0Z" transform="translate(-352.002 -0.004)" fill="#fff"/>
    </g>
  </g>
</svg>
