<svg id="search_1_" data-name="search (1)" xmlns="http://www.w3.org/2000/svg" width="33.304" height="33.304" viewBox="0 0 33.304 33.304">
  <g id="Group_55228" data-name="Group 55228" transform="translate(5.007 7.219)">
    <g id="Group_55227" data-name="Group 55227">
      <path id="Path_82787" data-name="Path 82787" d="M81.166,111.336a1.23,1.23,0,0,0-1.74,0,8.409,8.409,0,0,0-2.405,6.816,1.231,1.231,0,0,0,1.223,1.108c.041,0,.082,0,.123-.006a1.231,1.231,0,0,0,1.1-1.347,5.957,5.957,0,0,1,1.7-4.832A1.23,1.23,0,0,0,81.166,111.336Z" transform="translate(-76.978 -110.976)" fill="#fff"/>
    </g>
  </g>
  <g id="Group_55230" data-name="Group 55230">
    <g id="Group_55229" data-name="Group 55229">
      <path id="Path_82788" data-name="Path 82788" d="M14.068,0A14.068,14.068,0,1,0,28.136,14.068,14.084,14.084,0,0,0,14.068,0Zm0,25.675A11.607,11.607,0,1,1,25.675,14.068,11.62,11.62,0,0,1,14.068,25.675Z" fill="#fff"/>
    </g>
  </g>
  <g id="Group_55232" data-name="Group 55232" transform="translate(21.902 21.902)">
    <g id="Group_55231" data-name="Group 55231">
      <path id="Path_82789" data-name="Path 82789" d="M347.75,346.011l-8.941-8.941a1.23,1.23,0,0,0-1.74,1.74l8.941,8.941a1.23,1.23,0,1,0,1.74-1.74Z" transform="translate(-336.708 -336.71)" fill="#fff"/>
    </g>
  </g>
</svg>
