<svg xmlns="http://www.w3.org/2000/svg" width="31.386" height="31.31" viewBox="0 0 31.386 31.31">
  <g id="skype" transform="translate(-0.001 0.001)">
    <path id="Path_85456" data-name="Path 85456" d="M30.275,18.269a14.911,14.911,0,0,0,.247-2.687A14.809,14.809,0,0,0,15.7.762a14.918,14.918,0,0,0-2.806.265h-.007a8.769,8.769,0,0,0-11.785,12,14.934,14.934,0,0,0-.223,2.554A14.814,14.814,0,0,0,15.7,30.4a14.9,14.9,0,0,0,2.6-.231,8.77,8.77,0,0,0,11.978-11.9Zm0,0" transform="translate(0.001 0)" fill="#00aff0"/>
    <path id="Path_85457" data-name="Path 85457" d="M140.41,114.991c-5.265,0-7.621-2.589-7.621-4.529a1.656,1.656,0,0,1,1.747-1.692c2.253,0,1.67,3.235,5.874,3.235,2.152,0,3.341-1.169,3.341-2.364,0-.719-.355-1.516-1.772-1.866l-4.683-1.169c-3.772-.946-4.456-2.985-4.456-4.9,0-3.979,3.747-5.474,7.265-5.474,3.241,0,7.062,1.791,7.062,4.179a1.713,1.713,0,0,1-1.9,1.618c-1.923,0-1.569-2.662-5.443-2.662-1.922,0-2.987.87-2.987,2.116s1.518,1.64,2.836,1.941l3.466.769c3.8.846,4.76,3.063,4.76,5.151,0,3.234-2.482,5.648-7.492,5.648Zm0,0" transform="translate(-124.648 -90.332)" fill="#fff"/>
  </g>
</svg>
