<svg xmlns="http://www.w3.org/2000/svg" xmlns:xlink="http://www.w3.org/1999/xlink" width="76" height="77" viewBox="0 0 76 77">
  <defs>
    <radialGradient id="radial-gradient" cx="0.502" cy="0.414" r="0.5" gradientUnits="objectBoundingBox">
      <stop offset="0" stop-color="#fddb35"/>
      <stop offset="0.482" stop-color="#fcd934"/>
      <stop offset="0.655" stop-color="#fcd232"/>
      <stop offset="0.779" stop-color="#fbc62e"/>
      <stop offset="0.879" stop-color="#f9b528"/>
      <stop offset="0.964" stop-color="#f89f21"/>
      <stop offset="1" stop-color="#f7941e"/>
    </radialGradient>
    <linearGradient id="linear-gradient" y1="0.5" x2="1" y2="0.5" gradientUnits="objectBoundingBox">
      <stop offset="0" stop-color="#2e92db"/>
      <stop offset="0.041" stop-color="#2d98df"/>
      <stop offset="0.197" stop-color="#2baded"/>
      <stop offset="0.351" stop-color="#2ab9f5"/>
      <stop offset="0.5" stop-color="#2abef8"/>
      <stop offset="0.647" stop-color="#2ab9f5"/>
      <stop offset="0.804" stop-color="#2bacec"/>
      <stop offset="0.965" stop-color="#2d97de"/>
      <stop offset="1" stop-color="#2e92db"/>
    </linearGradient>
    <linearGradient id="linear-gradient-2" x1="-38.46" y1="0.5" x2="-37.46" y2="0.5" xlink:href="#linear-gradient"/>
  </defs>
  <g id="Group_56510" data-name="Group 56510" transform="translate(-351.509 -709.577)">
    <rect id="Rectangle_23806" data-name="Rectangle 23806" width="76" height="77" transform="translate(351.509 709.577)" fill="#fff" opacity="0"/>
    <g id="Group_56509" data-name="Group 56509" transform="translate(352.001 710.568)">
      <path id="Path_87957" data-name="Path 87957" d="M765.606,669.336a37.508,37.508,0,1,1-37.511-37.512A37.5,37.5,0,0,1,765.606,669.336Z" transform="translate(-690.589 -631.824)" fill="url(#radial-gradient)"/>
      <path id="Path_87958" data-name="Path 87958" d="M770.493,678.405A37.508,37.508,0,0,1,711,708.795a40.081,40.081,0,0,0,58.636-35.515c0-1.2-.052-2.4-.163-3.58A37.482,37.482,0,0,1,770.493,678.405Z" transform="translate(-695.477 -640.893)" fill="#fbd69e" style="mix-blend-mode: multiply;isolation: isolate"/>
      <path id="Path_87959" data-name="Path 87959" d="M745.13,706.1a13.186,13.186,0,0,1-1.94,7.082c-.132.205-.268.4-.413.593a8.29,8.29,0,0,1-1.65,1.681,6.071,6.071,0,0,1-3.228,1.26c-.065,0-.13.007-.2.01s-.13,0-.195,0-.132,0-.2,0-.13-.005-.195-.01a6.083,6.083,0,0,1-3.231-1.26,8.311,8.311,0,0,1-1.648-1.678c-.144-.19-.28-.388-.412-.593a13.194,13.194,0,0,1-1.94-7.084,12.071,12.071,0,0,1,.61-3.94c.06-.18.127-.355.2-.526a7.294,7.294,0,0,1,13.633,0c.07.17.135.345.2.526A12.1,12.1,0,0,1,745.13,706.1Z" transform="translate(-699.997 -647.415)" fill="#87594a"/>
      <path id="Path_87960" data-name="Path 87960" d="M711.481,666.635a9.725,9.725,0,0,0-6.928,3.992,2.355,2.355,0,0,1-2.654.975l-.034-.015c-.933-.371-1.2-1.87-.3-3.114a13.412,13.412,0,0,1,9.556-5.506c1.526-.152,2.689.83,2.542,1.824l0,.037A2.356,2.356,0,0,1,711.481,666.635Z" transform="translate(-693.084 -639.277)" fill="#fbd69e" style="mix-blend-mode: multiply;isolation: isolate"/>
      <path id="Path_87961" data-name="Path 87961" d="M764.342,666.635a9.722,9.722,0,0,1,6.928,3.992,2.355,2.355,0,0,0,2.654.975l.034-.015c.933-.371,1.2-1.87.3-3.114a13.411,13.411,0,0,0-9.555-5.506c-1.526-.152-2.689.83-2.542,1.824l0,.037A2.356,2.356,0,0,0,764.342,666.635Z" transform="translate(-707.723 -639.277)" fill="#fbd69e" style="mix-blend-mode: multiply;isolation: isolate"/>
      <path id="Path_87962" data-name="Path 87962" d="M744.712,702.165a25.435,25.435,0,0,1-14.028,0c.06-.18.127-.355.2-.526a7.294,7.294,0,0,1,13.633,0C744.584,701.809,744.649,701.984,744.712,702.165Z" transform="translate(-700.189 -647.415)" fill="#fff"/>
      <path id="Path_87963" data-name="Path 87963" d="M720.747,675.436v40.119a37.383,37.383,0,0,1-13.715-7.829V680.682Z" transform="translate(-694.526 -642.266)" fill="url(#linear-gradient)"/>
      <path id="Path_87964" data-name="Path 87964" d="M754.738,675.436v40.119a37.384,37.384,0,0,0,13.715-7.829V680.682Z" transform="translate(-705.948 -642.266)" fill="url(#linear-gradient-2)"/>
      <path id="Path_87965" data-name="Path 87965" d="M743.517,718.745a8.284,8.284,0,0,1-1.65,1.681,6.071,6.071,0,0,1-3.228,1.26c-.065,0-.13.007-.2.01s-.13,0-.195,0-.132,0-.2,0-.13-.005-.195-.01a6.083,6.083,0,0,1-3.231-1.26,8.3,8.3,0,0,1-1.648-1.678,13.561,13.561,0,0,1,10.542,0Z" transform="translate(-700.737 -652.38)" fill="#ee6571"/>
      <g id="Group_56508" data-name="Group 56508" transform="translate(12.509 30.727)">
        <path id="Path_87966" data-name="Path 87966" d="M756.295,677.853a15.029,15.029,0,0,1,8.869,2.72.786.786,0,0,0,1.215-.85,10.528,10.528,0,0,0-20.167,0,.786.786,0,0,0,1.215.85A15.027,15.027,0,0,1,756.295,677.853Z" transform="translate(-716.409 -672.224)" fill="#87594a"/>
        <path id="Path_87967" data-name="Path 87967" d="M717.148,677.853a15.026,15.026,0,0,0-8.868,2.72.786.786,0,0,1-1.215-.85,10.528,10.528,0,0,1,20.167,0,.786.786,0,0,1-1.215.85A15.029,15.029,0,0,0,717.148,677.853Z" transform="translate(-707.036 -672.224)" fill="#87594a"/>
      </g>
    </g>
  </g>
</svg>
