<svg xmlns="http://www.w3.org/2000/svg" width="132" height="132" viewBox="0 0 132 132">
  <g id="Group_55888" data-name="Group 55888" transform="translate(-43.561 -527.561)">
    <rect id="Rectangle_23431" data-name="Rectangle 23431" width="132" height="132" transform="translate(43.561 527.561)"  opacity="0"/>
    <g id="Layer_7" data-name="Layer 7" transform="translate(50.318 535.304)">
      <path id="Path_87633" data-name="Path 87633" d="M22.712,46.647h.263a11.764,11.764,0,0,1,3.466-8.239l5.591-5.585a6.912,6.912,0,0,1,9.534,0l6.363,6.363a1.021,1.021,0,0,0,1.438,0,4.988,4.988,0,0,1,6.491-.462L60.1,41.908a5.958,5.958,0,0,1,2.37,4.74h.355l1.382-6.892A12.4,12.4,0,0,0,52.046,24.924H47.66a4.937,4.937,0,0,1-4.937-4.937A.987.987,0,0,0,41.735,19H35.614A14.635,14.635,0,0,0,21,33.614a14.861,14.861,0,0,0,.146,2.07Z" transform="translate(18.021 14.572)" />
      <path id="Path_87634" data-name="Path 87634" d="M55.6,50.7V38.849a1.989,1.989,0,0,0-.79-1.58l-4.244-3.181a1.027,1.027,0,0,0-1.329.095,5.087,5.087,0,0,1-7.022,0l-6.363-6.365a2.792,2.792,0,0,0-3.95,0L26.314,33.4A7.838,7.838,0,0,0,24,38.989V50.7a15.8,15.8,0,0,0,31.6,0Z" transform="translate(20.946 22.37)" />
      <path id="Path_87635" data-name="Path 87635" d="M29,48.539v2.885a5.924,5.924,0,1,0,11.849,0V48.539A19.732,19.732,0,0,1,29,48.539Z" transform="translate(25.82 43.367)" />
      <path id="Path_87636" data-name="Path 87636" d="M42,35v7.9h1.975a3.95,3.95,0,0,0,0-7.9Z" transform="translate(39.098 30.169)" />
      <path id="Path_87637" data-name="Path 87637" d="M72.559,51H62.085a10.357,10.357,0,0,1-20.127,0H31.484C21.28,51.011,13.011,58.962,13,68.773v1.975H91.043V68.773C91.031,58.962,82.762,51.011,72.559,51Z" transform="translate(8.723 45.766)" />
      <path id="Path_87638" data-name="Path 87638" d="M22.95,42.9h1.975V35H22.95a3.95,3.95,0,0,0,0,7.9Z" transform="translate(15.466 30.169)" />
      <path id="Path_87639" data-name="Path 87639" d="M49.7,15.824H43.773V2H31.924V15.824H26L37.849,27.672Z" transform="translate(22.895 -2)" />
      <path id="Path_87640" data-name="Path 87640" d="M77.6,11.874,67.723,2,49.95,19.773,46,15.824V33.6H63.773l-3.95-3.95Z" transform="translate(43.891 -2)" />
      <path id="Path_87641" data-name="Path 87641" d="M33.6,33.6V15.824l-3.95,3.95L11.874,2,2,11.874,19.773,29.647l-3.95,3.95Z" transform="translate(-2 -2)" />
    </g>
  </g>
</svg>
