<svg xmlns="http://www.w3.org/2000/svg" width="32.779" height="26.633" viewBox="0 0 32.779 26.633">
  <path id="twitter" d="M32.779,51.153a14.01,14.01,0,0,1-3.872,1.061A6.682,6.682,0,0,0,31.863,48.5,13.429,13.429,0,0,1,27.6,50.127a6.719,6.719,0,0,0-11.624,4.6,6.92,6.92,0,0,0,.156,1.532A19.021,19.021,0,0,1,2.282,49.225a6.722,6.722,0,0,0,2.065,8.981,6.636,6.636,0,0,1-3.036-.828v.074a6.751,6.751,0,0,0,5.384,6.6,6.707,6.707,0,0,1-1.762.221,5.942,5.942,0,0,1-1.272-.115A6.784,6.784,0,0,0,9.94,68.843a13.5,13.5,0,0,1-8.332,2.866A12.587,12.587,0,0,1,0,71.617a18.918,18.918,0,0,0,10.309,3.016c12.366,0,19.126-10.243,19.126-19.122,0-.3-.01-.584-.025-.869A13.406,13.406,0,0,0,32.779,51.153Z" transform="translate(0 -48)" fill="#03a9f4"/>
</svg>
