<svg xmlns="http://www.w3.org/2000/svg" width="31.071" height="31.071" viewBox="0 0 31.071 31.071">
  <g id="whatsapp" transform="translate(0.001 0)">
    <path id="Path_85454" data-name="Path 85454" d="M15.539,0h-.008A15.526,15.526,0,0,0,2.958,24.641L1.021,30.412,6.993,28.5A15.533,15.533,0,1,0,15.539,0Z" transform="translate(-0.001 0)" fill="#4caf50"/>
    <path id="Path_85455" data-name="Path 85455" d="M125.334,131.92a4.384,4.384,0,0,1-3.049,2.192c-.812.173-1.872.311-5.441-1.169-4.565-1.891-7.505-6.531-7.735-6.832a8.873,8.873,0,0,1-1.845-4.686,4.96,4.96,0,0,1,1.588-3.781,2.257,2.257,0,0,1,1.589-.557c.192,0,.365.01.52.017.456.019.685.047.986.767.375.9,1.287,3.132,1.4,3.361a.925.925,0,0,1,.066.841,2.685,2.685,0,0,1-.5.713c-.229.264-.447.466-.676.75-.21.247-.447.511-.183.967a13.789,13.789,0,0,0,2.521,3.132,11.421,11.421,0,0,0,3.643,2.247.982.982,0,0,0,1.1-.173,18.8,18.8,0,0,0,1.214-1.608.867.867,0,0,1,1.115-.338c.419.146,2.639,1.243,3.1,1.47s.757.338.868.53A3.869,3.869,0,0,1,125.334,131.92Z" transform="translate(-100.755 -109.983)" fill="#fafafa"/>
  </g>
</svg>
