<svg xmlns="http://www.w3.org/2000/svg" width="132" height="132" viewBox="0 0 132 132">
  <g id="Group_55889" data-name="Group 55889" transform="translate(-228.843 -527.843)">
    <rect id="Rectangle_23432" data-name="Rectangle 23432" width="132" height="132" transform="translate(228.843 527.843)"  opacity="0"/>
    <g id="burnout" transform="translate(253.409 533.462)">
      <path id="Path_87642" data-name="Path 87642" d="M151.234,79.079a18.717,18.717,0,0,1-18.7-18.7c0-17.082,16.671-26.275,23.749-26.275a3.554,3.554,0,0,1,3.164,5.12c-.6,1.2-.413,1.832,2.833,5.245,3.227,3.393,7.646,8.041,7.646,15.91a18.717,18.717,0,0,1-18.7,18.7A32.412,32.412,0,0,0,183.572,46.74c0-13.679-7.569-21.639-13.65-28.034-6.173-6.492-8.136-9.159-5.923-13.584A3.555,3.555,0,0,0,160.834,0c-8.849,0-12.628,6.83-15.388,11.818-1.228,2.22-2.757,4.983-3.814,4.983-.5,0-1.192,0-1.26-1.291a3.5,3.5,0,0,0-5.8-2.691c-.64.533-15.673,13.3-15.673,33.919a32.375,32.375,0,0,0,32.339,32.339Z" transform="translate(-109.8 -0.001)" />
      <path id="Path_87643" data-name="Path 87643" d="M285.906,374.575l7.579-15.158-8.126-2.032-7.579,15.158Z" transform="translate(-231.21 -273.091)" />
      <path id="Path_87644" data-name="Path 87644" d="M175.215,374.575l8.126-2.031-7.579-15.158-8.126,2.032Z" transform="translate(-147.045 -273.091)" />
      <path id="Path_87645" data-name="Path 87645" d="M103.446,393.747l-9.368-18.736a23.51,23.51,0,0,0-13.743,21.407v7.367a3.538,3.538,0,0,0,3.538,3.538h34.358V392.906l-10.762,2.69a3.551,3.551,0,0,1-4.022-1.85Z" transform="translate(-80.335 -286.559)" />
      <path id="Path_87646" data-name="Path 87646" d="M295.154,375.012l-9.368,18.736a3.551,3.551,0,0,1-4.022,1.85L271,392.907v14.417h34.358a3.538,3.538,0,0,0,3.538-3.538v-7.367A23.51,23.51,0,0,0,295.154,375.012Z" transform="translate(-226.03 -286.56)" />
      <path id="Path_87647" data-name="Path 87647" d="M243.123,364.623a39.664,39.664,0,0,1-3.975-.2l3.975,7.95,3.975-7.95A39.665,39.665,0,0,1,243.123,364.623Z" transform="translate(-201.69 -278.469)" />
      <path id="Path_87648" data-name="Path 87648" d="M219.494,179.4c-5.155,2.321-12.76,8.247-12.76,18.069a11.62,11.62,0,1,0,23.241,0C230.111,188.935,221.77,186.6,219.494,179.4Z" transform="translate(-176.921 -137.082)" />
    </g>
  </g>
</svg>
