<svg xmlns="http://www.w3.org/2000/svg" width="138" height="138" viewBox="0 0 138 138">
  <g id="Group_55887" data-name="Group 55887" transform="translate(-230 -361)">
    <rect id="Rectangle_23430" data-name="Rectangle 23430" width="138" height="138" transform="translate(230 361)" opacity="0"/>
    <g id="SOLID" transform="translate(239.204 371.212)">
      <path id="Path_87624" data-name="Path 87624" d="M155.864,44.59a5.3,5.3,0,0,0,7.489,0l2.49-2.489h.837a8.09,8.09,0,0,1,8.081,8.081V53.5a8.5,8.5,0,0,1,4.517-1.294h3.087a8.528,8.528,0,0,1,2.5.373V50.182A18.2,18.2,0,0,0,166.679,32h-1.733a18.063,18.063,0,0,0-12.857,5.325L147.314,42.1h6.061Z" transform="translate(-116.174 -29.98)" />
      <path id="Path_87625" data-name="Path 87625" d="M242.578,128a4.517,4.517,0,0,0-4.04,6.537l.766,1.531a6.033,6.033,0,0,1,.579,3.568l-1.346,9.423a6.09,6.09,0,0,1-6,5.2H232v8.081h4.2a10.128,10.128,0,0,0,9.9-8.12l1.985-9.927a6.069,6.069,0,0,1,.522-1.522L249.7,140.6a4.539,4.539,0,0,0,.477-2.02v-6.061A4.522,4.522,0,0,0,245.664,128Z" transform="translate(-179.475 -101.737)" />
      <path id="Path_87626" data-name="Path 87626" d="M32,151.1v27.852H60.282V165.576a6.157,6.157,0,0,1-.592-.519l-8.918-8.918,2.857-2.857,8.918,8.918a2.007,2.007,0,0,0,1.428.592H74.424a4.04,4.04,0,0,0,4.04-4.04v-10.1H68.688a6.074,6.074,0,0,1-5.262-3.053L56.8,134a12.145,12.145,0,0,1-8.606-10.8L40.283,131.1A28.1,28.1,0,0,0,32,151.1Z" transform="translate(-29.979 -98.146)" />
      <path id="Path_87627" data-name="Path 87627" d="M120.081,104.162h.564l1.56-4.679,3.833,1.278-1.134,3.4H129l3.8,3.8a2.022,2.022,0,0,0,2.857,0l1.285-1.285,2.054-1.541-4.364-5.818,3.232-2.424,4.364,5.818,2.1-1.576V92.04a4.047,4.047,0,0,0-3.276-3.968l-1.233,1.234a9.336,9.336,0,0,1-13.2,0L125.3,88h-8.428L112,92.877v3.2A8.09,8.09,0,0,0,120.081,104.162Z" transform="translate(-89.778 -71.838)" />
      <path id="Path_87628" data-name="Path 87628" d="M361.033,424h-8.511l-14.113,8.82.985,1.971a6.027,6.027,0,0,0,5.421,3.35h16.218a7.071,7.071,0,1,0,0-14.141Z" transform="translate(-259.013 -322.99)" />
      <path id="Path_87629" data-name="Path 87629" d="M105.227,272.639a13.6,13.6,0,0,0-9.034-7.167,14.13,14.13,0,0,1-9.484,3.669H82.5l-19.487,20.2H32v4.147a26.156,26.156,0,0,0,50.97,8.271l6.983-20.711,17.484,29.722,12.844-8.028Z" transform="translate(-29.98 -204.495)" />
      <path id="Path_87630" data-name="Path 87630" d="M48,60.121h4.04a8.09,8.09,0,0,1,8.081-8.081V48A12.135,12.135,0,0,0,48,60.121Z" transform="translate(-41.939 -41.939)" />
      <path id="Path_87631" data-name="Path 87631" d="M34.1,28.04V24A10.112,10.112,0,0,0,24,34.1h4.04A6.067,6.067,0,0,1,34.1,28.04Z" transform="translate(-24 -24)" />
      <path id="Path_87632" data-name="Path 87632" d="M372.283,122.1a10.1,10.1,0,1,0-20.2,0,8.081,8.081,0,1,0,0,16.162h7.842l-5.05,10.1h7.868l-6.354,11.119,3.508,2,9.808-17.164H361.41l3.03-6.061h7.842a8.081,8.081,0,1,0,0-16.162Z" transform="translate(-263.192 -89.778)" />
    </g>
  </g>
</svg>
