<svg xmlns="http://www.w3.org/2000/svg" xmlns:xlink="http://www.w3.org/1999/xlink" width="119" height="119" viewBox="0 0 119 119">
  <defs>
    <clipPath id="clip-path">
      <rect id="Rectangle_17796" data-name="Rectangle 17796" width="119" height="119" transform="translate(0.555 0.555)" />
    </clipPath>
  </defs>
  <g id="Mask_Group_20" data-name="Mask Group 20" transform="translate(-0.555 -0.555)" clip-path="url(#clip-path)">
    <g id="insomnia" transform="translate(0.33 0.329)">
      <path id="Path_82721" data-name="Path 82721" d="M62.789,44.783a1.232,1.232,0,0,0,1.225-1.107l.708-6.994c.116.011.236.011.351.011a13.285,13.285,0,0,0,10.2-4.767c2.994,2.925,7.492,9.461,8.612,22.8a6,6,0,0,1,4-1.528h15.386V41.984a2.193,2.193,0,0,1,2.194-2.194H116.31a2.194,2.194,0,0,1,2.194,2.194v43.17a2.195,2.195,0,0,1-2.194,2.194H105.467a2.194,2.194,0,0,1-2.194-2.194V76.966H15.285v8.188a2.195,2.195,0,0,1-2.194,2.194H2.248A2.193,2.193,0,0,1,.054,85.154V61.986a2.194,2.194,0,0,1,2.194-2.194H3.341V51.658a6.906,6.906,0,0,1,6.9-6.9H49.024A7.424,7.424,0,0,0,47.707,49a7.511,7.511,0,0,0,7.5,7.5H60.17V53.213H55.212a4.2,4.2,0,0,1-2.668-.955l-.013-.011c-.1-.078-.185-.161-.272-.247l-.03-.028c-.081-.082-.158-.168-.232-.256-.013-.015-.029-.03-.042-.047-.07-.085-.133-.173-.2-.263-.016-.023-.032-.043-.048-.066-.058-.087-.11-.176-.162-.268-.016-.029-.034-.056-.05-.085-.047-.089-.089-.179-.13-.27-.016-.034-.033-.069-.048-.1-.037-.089-.069-.179-.1-.27-.014-.041-.03-.081-.042-.123-.027-.089-.048-.179-.07-.27-.01-.047-.023-.092-.032-.139-.017-.09-.03-.18-.041-.271-.007-.051-.014-.1-.019-.153-.009-.09-.011-.181-.014-.272C51,49.075,51,49.037,51,49c0-.016,0-.031,0-.048s0-.054,0-.082c0-.063.01-.123.015-.184s.008-.115.015-.172.018-.133.03-.2c.013-.087.029-.172.049-.257,0-.022.01-.044.016-.066a4.213,4.213,0,0,1,4.086-3.205Zm0,0" transform="translate(-0.054 31.103)" />
      <path id="Path_82722" data-name="Path 82722" d="M37.933,42.561A10.019,10.019,0,1,0,27.915,32.542,10.019,10.019,0,0,0,37.933,42.561Zm0,0" transform="translate(27.088 21.942)" />
      <path id="Path_82723" data-name="Path 82723" d="M.056,57A2.233,2.233,0,0,0,2.283,59.23H44.47A2.233,2.233,0,0,0,46.7,57V39.867h0V36.576h0V23.323A23.323,23.323,0,0,0,25.025.06C24.482.022,23.933,0,23.38,0s-1.1.022-1.646.06A23.318,23.318,0,0,0,.056,23.323V36.576h0v3.291h0Zm3.288-2.328v-14.8h18.39V55.935H4.61a1.266,1.266,0,0,1-1.266-1.266Zm40.064,0a1.265,1.265,0,0,1-1.265,1.266H25.026V39.868H43.408Zm0-31.345V36.576H25.026V3.361A20.058,20.058,0,0,1,43.408,23.324ZM3.344,23.7A20.311,20.311,0,0,1,21.734,3.362V36.576H3.344Zm0,0" transform="translate(-0.054 0)" />
      <path id="Path_82724" data-name="Path 82724" d="M9.859,13.839a5.836,5.836,0,0,1,2.132-4.516.654.654,0,0,0-.238-1.138,5.85,5.85,0,1,0,0,11.308.654.654,0,0,0,.237-1.137,5.834,5.834,0,0,1-2.133-4.517Zm0,0" transform="translate(4.175 7.782)" />
    </g>
  </g>
</svg>
