<svg xmlns="http://www.w3.org/2000/svg" xmlns:xlink="http://www.w3.org/1999/xlink" width="74" height="74" viewBox="0 0 74 74">
  <defs>
    <radialGradient id="radial-gradient" cx="0.506" cy="0.433" r="0.5" gradientUnits="objectBoundingBox">
      <stop offset="0" stop-color="#fddb35"/>
      <stop offset="0.482" stop-color="#fcd934"/>
      <stop offset="0.655" stop-color="#fcd232"/>
      <stop offset="0.779" stop-color="#fbc62e"/>
      <stop offset="0.879" stop-color="#f9b528"/>
      <stop offset="0.964" stop-color="#f89f21"/>
      <stop offset="1" stop-color="#f7941e"/>
    </radialGradient>
  </defs>
  <g id="Group_56560" data-name="Group 56560" transform="translate(-2240.162 -349.875)">
    <circle id="Ellipse_958" data-name="Ellipse 958" cx="37" cy="37" r="37" transform="translate(2240.162 349.875)" fill="url(#radial-gradient)"/>
    <path id="Path_88096" data-name="Path 88096" d="M2319.013,396.662A36.578,36.578,0,0,1,2261,426.3a39.087,39.087,0,0,0,57.182-34.635c0-1.175-.05-2.341-.158-3.491A36.55,36.55,0,0,1,2319.013,396.662Z" transform="translate(-5.272 -9.782)" fill="#fbd69e" style="mix-blend-mode: multiply;isolation: isolate"/>
    <path id="Path_88097" data-name="Path 88097" d="M2269,378.757a9.481,9.481,0,0,0-7.476,2.218,2.3,2.3,0,0,1-2.738.324l-.028-.022c-.8-.563-.716-2.045.416-3.022a13.081,13.081,0,0,1,10.311-3.06c1.483.2,2.363,1.4,2,2.306l-.011.034A2.3,2.3,0,0,1,2269,378.757Z" transform="translate(-4.556 -6.4)" fill="#fbd69e" style="mix-blend-mode: multiply;isolation: isolate"/>
    <path id="Path_88098" data-name="Path 88098" d="M2306.156,378.757a9.481,9.481,0,0,1,7.476,2.218,2.3,2.3,0,0,0,2.738.324l.028-.022c.8-.563.716-2.045-.417-3.022a13.08,13.08,0,0,0-10.31-3.06c-1.483.2-2.364,1.4-2,2.306l.012.034A2.3,2.3,0,0,0,2306.156,378.757Z" transform="translate(-16.273 -6.4)" fill="#fbd69e" style="mix-blend-mode: multiply;isolation: isolate"/>
    <g id="Group_56558" data-name="Group 56558" transform="translate(2253.669 394.045)">
      <path id="Path_88099" data-name="Path 88099" d="M2305.2,410.832a22.883,22.883,0,0,1-1.46,6.013,23.378,23.378,0,0,1-21.791,14.9h-.473a23.352,23.352,0,0,1-23.244-20.908,1.409,1.409,0,0,1,1.932-1.449c7.554,2.984,19.488,3.313,21.549,3.313s14-.329,21.554-3.313A1.41,1.41,0,0,1,2305.2,410.832Z" transform="translate(-2258.226 -409.279)" fill="#87594a"/>
      <path id="Path_88100" data-name="Path 88100" d="M2305.2,410.834a22.96,22.96,0,0,1-1.457,6.012,55.775,55.775,0,0,1-21.645,4.148h-.772a55.848,55.848,0,0,1-21.633-4.142,23.354,23.354,0,0,1-1.462-6.018,1.414,1.414,0,0,1,1.938-1.451c7.549,2.982,19.485,3.315,21.546,3.315s14-.333,21.553-3.315A1.409,1.409,0,0,1,2305.2,410.834Z" transform="translate(-2258.225 -409.279)" fill="#fff"/>
      <path id="Path_88101" data-name="Path 88101" d="M2260.168,410.494c7.554,2.984,19.488,3.313,21.549,3.313s14-.329,21.554-3.312a1.408,1.408,0,0,1,1.86.863c.022-.176.054-.349.073-.526a1.41,1.41,0,0,0-1.933-1.449c-7.554,2.984-19.494,3.313-21.554,3.313s-13.994-.329-21.549-3.313a1.409,1.409,0,0,0-1.932,1.449c.018.177.05.35.072.526A1.407,1.407,0,0,1,2260.168,410.494Z" transform="translate(-2258.226 -409.279)" fill="#87594a"/>
      <path id="Path_88102" data-name="Path 88102" d="M2304.257,419.48a23.382,23.382,0,0,1-21.793,14.893h-.47a23.376,23.376,0,0,1-21.787-14.887,55.845,55.845,0,0,0,21.633,4.142h.771A55.776,55.776,0,0,0,2304.257,419.48Z" transform="translate(-2258.737 -411.914)" fill="#fff"/>
      <path id="Path_88103" data-name="Path 88103" d="M2281.84,424.862h.771a56.13,56.13,0,0,0,21-3.883c.232-.491.449-.99.647-1.5a55.776,55.776,0,0,1-21.646,4.148h-.771a55.845,55.845,0,0,1-21.633-4.142c.2.509.416,1.008.647,1.5A56.19,56.19,0,0,0,2281.84,424.862Z" transform="translate(-2258.737 -411.914)" fill="#87594a"/>
    </g>
    <g id="Group_56559" data-name="Group 56559" transform="translate(2256.706 381.185)">
      <path id="Path_88104" data-name="Path 88104" d="M2276.767,397.489a2.887,2.887,0,0,1-2.026-.309,10.27,10.27,0,0,0-8.99,1.485,2.882,2.882,0,0,1-1.819.943,1.308,1.308,0,0,1-1.573-1.081,1.938,1.938,0,0,1,.167-1.256,9.22,9.22,0,0,1,6.655-5.187l.2-.033a9.224,9.224,0,0,1,7.977,2.779,1.93,1.93,0,0,1,.562,1.144A1.311,1.311,0,0,1,2276.767,397.489Z" transform="translate(-2262.32 -391.941)" fill="#87594a"/>
      <path id="Path_88105" data-name="Path 88105" d="M2297.661,397.489a2.886,2.886,0,0,0,2.026-.309,10.269,10.269,0,0,1,8.99,1.485,2.881,2.881,0,0,0,1.82.943,1.308,1.308,0,0,0,1.573-1.081,1.944,1.944,0,0,0-.167-1.256,9.22,9.22,0,0,0-6.656-5.187l-.2-.033a9.223,9.223,0,0,0-7.977,2.779,1.928,1.928,0,0,0-.562,1.144A1.311,1.311,0,0,0,2297.661,397.489Z" transform="translate(-2271.147 -391.941)" fill="#87594a"/>
    </g>
  </g>
</svg>
