<svg xmlns="http://www.w3.org/2000/svg" xmlns:xlink="http://www.w3.org/1999/xlink" width="73.138" height="73.139" viewBox="0 0 73.138 73.139">
  <defs>
    <radialGradient id="radial-gradient" cx="0.506" cy="0.413" r="0.5" gradientUnits="objectBoundingBox">
      <stop offset="0" stop-color="#fddb35"/>
      <stop offset="0.482" stop-color="#fcd934"/>
      <stop offset="0.655" stop-color="#fcd232"/>
      <stop offset="0.779" stop-color="#fbc62e"/>
      <stop offset="0.879" stop-color="#f9b528"/>
      <stop offset="0.964" stop-color="#f89f21"/>
      <stop offset="1" stop-color="#f7941e"/>
    </radialGradient>
  </defs>
  <g id="Group_56557" data-name="Group 56557" transform="translate(-1991.542 -355.769)">
    <circle id="Ellipse_957" data-name="Ellipse 957" cx="36.569" cy="36.569" r="36.569" transform="translate(1991.542 355.769)" fill="url(#radial-gradient)"/>
    <path id="Path_88090" data-name="Path 88090" d="M2069.956,402.13a36.569,36.569,0,0,1-58,29.628,39.077,39.077,0,0,0,57.169-34.626c0-1.175-.051-2.34-.159-3.49A36.556,36.556,0,0,1,2069.956,402.13Z" transform="translate(-5.276 -9.789)" fill="#fbd69e" style="mix-blend-mode: multiply;isolation: isolate"/>
    <path id="Path_88091" data-name="Path 88091" d="M2012.5,391.952a9.484,9.484,0,0,0-7.474,2.218,2.3,2.3,0,0,1-2.737.325l-.028-.022c-.8-.562-.715-2.044.417-3.022a13.075,13.075,0,0,1,10.308-3.059c1.482.2,2.363,1.4,2,2.3l-.012.034A2.3,2.3,0,0,1,2012.5,391.952Z" transform="translate(-2.635 -8.401)" fill="#fbd69e" style="mix-blend-mode: multiply;isolation: isolate"/>
    <path id="Path_88092" data-name="Path 88092" d="M2068.467,392.564a9.483,9.483,0,0,1,7.03,3.37,2.3,2.3,0,0,0,2.652.753l.031-.017c.88-.429,1.029-1.906.066-3.05a13.077,13.077,0,0,0-9.7-4.648c-1.5-.036-2.554,1.005-2.338,1.961l.007.036A2.3,2.3,0,0,0,2068.467,392.564Z" transform="translate(-19.293 -8.582)" fill="#fbd69e" style="mix-blend-mode: multiply;isolation: isolate"/>
    <path id="Path_88093" data-name="Path 88093" d="M2065.079,402.58c-2.16-.039-7.945.116-11.609,3.818-1.118,1.234.926,1.041,2.044.925,1.013-.1,4.744-.35,5.939,1.1a4.081,4.081,0,0,0,.29.5l0,.006c.127.384.314.569.531.619a4.048,4.048,0,1,0,2.8-6.97Z" transform="translate(-15.923 -12.098)" fill="#87594a"/>
    <path id="Path_88094" data-name="Path 88094" d="M2018.948,402.58c-2.16-.039-7.944.116-11.608,3.818-1.118,1.234.926,1.041,2.044.925,1.013-.1,4.743-.35,5.939,1.1a4.027,4.027,0,0,0,.291.5l0,.006c.128.384.315.569.532.619a4.048,4.048,0,1,0,2.8-6.97Z" transform="translate(-4 -12.098)" fill="#87594a"/>
    <path id="Path_88095" data-name="Path 88095" d="M2053.786,420.482a1.621,1.621,0,0,0-1.5.938c-1.175,2.689-4.644,4.781-11.41,6.557a24.652,24.652,0,0,1-11.724.025,1.148,1.148,0,0,0-.688,2.184A25.4,25.4,0,0,0,2043.6,431.2c8.743-2.3,11.983-5.117,11.878-9.075a1.679,1.679,0,0,0-1.67-1.647Z" transform="translate(-9.355 -16.726)" fill="#87594a"/>
  </g>
</svg>
