<svg xmlns="http://www.w3.org/2000/svg" xmlns:xlink="http://www.w3.org/1999/xlink" width="76.2" height="76.202" viewBox="0 0 76.2 76.202">
  <defs>
    <radialGradient id="radial-gradient" cx="0.506" cy="0.433" r="0.5" gradientUnits="objectBoundingBox">
      <stop offset="0" stop-color="#fddb35"/>
      <stop offset="0.482" stop-color="#fcd934"/>
      <stop offset="0.655" stop-color="#fcd232"/>
      <stop offset="0.779" stop-color="#fbc62e"/>
      <stop offset="0.879" stop-color="#f9b528"/>
      <stop offset="0.964" stop-color="#f89f21"/>
      <stop offset="1" stop-color="#f7941e"/>
    </radialGradient>
  </defs>
  <g id="Group_56538" data-name="Group 56538" transform="translate(-2240.783 -350.497)">
    <circle id="Ellipse_943" data-name="Ellipse 943" cx="38" cy="38" r="38" transform="translate(2240.783 350.497)" fill="url(#radial-gradient)"/>
    <path id="Path_88026" data-name="Path 88026" d="M2321.584,397.038A38.2,38.2,0,0,1,2261,427.988a40.82,40.82,0,0,0,59.717-36.17c0-1.227-.052-2.445-.165-3.645A38.169,38.169,0,0,1,2321.584,397.038Z" transform="translate(-4.601 -8.537)" fill="#fbd69e" style="mix-blend-mode: multiply;isolation: isolate"/>
    <path id="Path_88027" data-name="Path 88027" d="M2269.476,378.92a9.9,9.9,0,0,0-7.807,2.317,2.4,2.4,0,0,1-2.859.339l-.03-.022c-.837-.588-.747-2.136.435-3.156a13.661,13.661,0,0,1,10.767-3.2c1.548.211,2.468,1.459,2.087,2.408l-.012.036A2.4,2.4,0,0,1,2269.476,378.92Z" transform="translate(-3.977 -5.585)" fill="#fbd69e" style="mix-blend-mode: multiply;isolation: isolate"/>
    <path id="Path_88028" data-name="Path 88028" d="M2306.27,378.92a9.9,9.9,0,0,1,7.807,2.317,2.4,2.4,0,0,0,2.859.339l.029-.022c.837-.588.748-2.136-.435-3.156a13.66,13.66,0,0,0-10.767-3.2c-1.548.211-2.469,1.459-2.087,2.408l.012.036A2.4,2.4,0,0,0,2306.27,378.92Z" transform="translate(-14.202 -5.585)" fill="#fbd69e" style="mix-blend-mode: multiply;isolation: isolate"/>
    <g id="Group_56536" data-name="Group 56536" transform="translate(2254.249 395.984)">
      <path id="Path_88029" data-name="Path 88029" d="M2307.286,410.9a23.921,23.921,0,0,1-1.525,6.28A24.414,24.414,0,0,1,2283,432.735h-.494a24.387,24.387,0,0,1-24.274-21.835,1.472,1.472,0,0,1,2.018-1.513c7.889,3.116,20.352,3.459,22.5,3.459s14.62-.343,22.509-3.459A1.472,1.472,0,0,1,2307.286,410.9Z" transform="translate(-2258.226 -409.279)" fill="#87594a"/>
      <path id="Path_88030" data-name="Path 88030" d="M2307.284,410.9a23.961,23.961,0,0,1-1.521,6.278,58.248,58.248,0,0,1-22.6,4.331h-.806a58.323,58.323,0,0,1-22.592-4.325,24.4,24.4,0,0,1-1.527-6.284,1.477,1.477,0,0,1,2.024-1.515c7.883,3.114,20.348,3.462,22.5,3.462s14.619-.348,22.508-3.462A1.471,1.471,0,0,1,2307.284,410.9Z" transform="translate(-2258.225 -409.279)" fill="#fff"/>
      <path id="Path_88031" data-name="Path 88031" d="M2260.254,410.548c7.889,3.116,20.352,3.459,22.5,3.459s14.62-.343,22.509-3.459a1.471,1.471,0,0,1,1.943.9c.023-.184.057-.364.076-.549a1.472,1.472,0,0,0-2.019-1.513c-7.889,3.116-20.358,3.459-22.509,3.459s-14.615-.343-22.5-3.459a1.472,1.472,0,0,0-2.018,1.513c.018.185.052.366.075.549A1.47,1.47,0,0,1,2260.254,410.548Z" transform="translate(-2258.226 -409.279)" fill="#87594a"/>
      <path id="Path_88032" data-name="Path 88032" d="M2306.209,419.48a24.419,24.419,0,0,1-22.759,15.553h-.491a24.412,24.412,0,0,1-22.752-15.547,58.319,58.319,0,0,0,22.592,4.325h.806A58.249,58.249,0,0,0,2306.209,419.48Z" transform="translate(-2258.672 -411.578)" fill="#fff"/>
      <path id="Path_88033" data-name="Path 88033" d="M2282.8,425.1h.806a58.617,58.617,0,0,0,21.929-4.055c.242-.513.469-1.034.676-1.565a58.249,58.249,0,0,1-22.6,4.332h-.806a58.319,58.319,0,0,1-22.592-4.325c.207.531.434,1.053.676,1.565A58.679,58.679,0,0,0,2282.8,425.1Z" transform="translate(-2258.672 -411.578)" fill="#87594a"/>
    </g>
    <g id="Group_56537" data-name="Group 56537" transform="translate(2257.42 382.554)">
      <path id="Path_88034" data-name="Path 88034" d="M2277.407,397.735a3.014,3.014,0,0,1-2.115-.322c-1.981-1.063-4.39-.4-4.875-.323s-2.979.229-4.513,1.874a3.008,3.008,0,0,1-1.9.984,1.366,1.366,0,0,1-1.642-1.129,2.022,2.022,0,0,1,.174-1.311,9.627,9.627,0,0,1,6.95-5.417l.207-.034a9.633,9.633,0,0,1,8.331,2.9,2.016,2.016,0,0,1,.586,1.194A1.369,1.369,0,0,1,2277.407,397.735Z" transform="translate(-2262.32 -391.941)" fill="#87594a"/>
      <path id="Path_88035" data-name="Path 88035" d="M2297.713,397.735a3.014,3.014,0,0,0,2.115-.322c1.981-1.063,4.39-.4,4.875-.323s2.979.229,4.513,1.874a3.009,3.009,0,0,0,1.9.984,1.367,1.367,0,0,0,1.643-1.129,2.03,2.03,0,0,0-.175-1.311,9.628,9.628,0,0,0-6.95-5.417l-.207-.034a9.632,9.632,0,0,0-8.331,2.9,2.013,2.013,0,0,0-.586,1.194A1.369,1.369,0,0,0,2297.713,397.735Z" transform="translate(-2270.023 -391.941)" fill="#87594a"/>
    </g>
  </g>
</svg>
