<svg xmlns="http://www.w3.org/2000/svg" xmlns:xlink="http://www.w3.org/1999/xlink" width="76.278" height="76.278" viewBox="0 0 76.278 76.278">
  <defs>
    <radialGradient id="radial-gradient" cx="0.59" cy="0.491" r="0.5" gradientUnits="objectBoundingBox">
      <stop offset="0" stop-color="#fddb35"/>
      <stop offset="0.482" stop-color="#fcd934"/>
      <stop offset="0.655" stop-color="#fcd232"/>
      <stop offset="0.779" stop-color="#fbc62e"/>
      <stop offset="0.879" stop-color="#f9b528"/>
      <stop offset="0.964" stop-color="#f89f21"/>
      <stop offset="1" stop-color="#f7941e"/>
    </radialGradient>
  </defs>
  <g id="Group_56556" data-name="Group 56556" transform="translate(-1797.144 -515)">
    <circle id="Ellipse_956" data-name="Ellipse 956" cx="37.861" cy="37.861" r="37.861" transform="translate(1797.144 590.721) rotate(-89.578)" fill="url(#radial-gradient)"/>
    <path id="Path_88082" data-name="Path 88082" d="M1877.97,562.022a37.863,37.863,0,0,1-60.053,30.676,40.459,40.459,0,0,0,59.19-35.851c0-1.216-.052-2.423-.164-3.614A37.823,37.823,0,0,1,1877.97,562.022Z" transform="translate(-4.824 -8.88)" fill="#fbd69e" style="mix-blend-mode: multiply;isolation: isolate"/>
    <path id="Path_88083" data-name="Path 88083" d="M1859.311,590.6c.092,3.248-1.6,4.9-3.594,4.786a3.718,3.718,0,0,1-.8-.137,5.55,5.55,0,0,1-2.631-1.79c-2.934-3.4-7.175-2.909-10.881-2.909s-7.954-.488-10.887,2.909a5.548,5.548,0,0,1-2.631,1.79,4.153,4.153,0,0,1-.8.137c-2,.117-3.7-1.532-3.594-4.786a12.868,12.868,0,0,1,1.371-5.564c3.446-6.787,12.469-9,16.538-9s13.092,2.211,16.538,9A12.865,12.865,0,0,1,1859.311,590.6Z" transform="translate(-6.118 -14.175)" fill="#87594a"/>
    <path id="Path_88084" data-name="Path 88084" d="M1856.805,598.947a3.726,3.726,0,0,1-.8-.137,5.548,5.548,0,0,1-2.631-1.79c-2.934-3.4-7.176-2.909-10.881-2.909s-7.954-.488-10.887,2.909a5.549,5.549,0,0,1-2.631,1.79,4.154,4.154,0,0,1-.8.137c2.464-5.447,7.942-7.565,14.314-7.565S1854.341,593.5,1856.805,598.947Z" transform="translate(-7.207 -17.739)" fill="#ee6571"/>
    <path id="Path_88085" data-name="Path 88085" d="M1857.725,583.526c-.376.161-.762.32-1.159.471a34.686,34.686,0,0,0-28.952,0c-.4-.151-.782-.31-1.158-.471,3.922-5.612,11.883-7.49,15.635-7.49S1853.8,577.914,1857.725,583.526Z" transform="translate(-6.807 -14.175)" fill="#fff"/>
    <path id="Path_88086" data-name="Path 88086" d="M1829.043,537.369a9.817,9.817,0,0,1-6.969,4.073,2.377,2.377,0,0,0-2.184,1.837l0,.037c-.142,1,1.038,1.989,2.577,1.826a13.54,13.54,0,0,0,9.612-5.617c.9-1.262.62-2.773-.325-3.142l-.034-.015A2.377,2.377,0,0,0,1829.043,537.369Z" transform="translate(-5.279 -4.934)" fill="#fbd69e" style="mix-blend-mode: multiply;isolation: isolate"/>
    <path id="Path_88087" data-name="Path 88087" d="M1860.741,537.369a9.816,9.816,0,0,0,6.969,4.073,2.378,2.378,0,0,1,2.184,1.837l0,.037c.143,1-1.037,1.989-2.577,1.826a13.544,13.544,0,0,1-9.612-5.617c-.9-1.262-.618-2.773.326-3.142l.034-.015A2.377,2.377,0,0,1,1860.741,537.369Z" transform="translate(-13.939 -4.934)" fill="#fbd69e" style="mix-blend-mode: multiply;isolation: isolate"/>
    <path id="Path_88088" data-name="Path 88088" d="M1825.66,556.609a12.773,12.773,0,0,1-7.878.327.668.668,0,0,0-.734,1.024,8.95,8.95,0,0,0,16.168-5.7.669.669,0,0,0-1.214-.338A12.773,12.773,0,0,1,1825.66,556.609Z" transform="translate(-4.594 -8.508)" fill="#87594a"/>
    <path id="Path_88089" data-name="Path 88089" d="M1863.046,556.609a12.774,12.774,0,0,0,7.879.327.668.668,0,0,1,.734,1.024,8.95,8.95,0,0,1-16.167-5.7.669.669,0,0,1,1.214-.338A12.766,12.766,0,0,0,1863.046,556.609Z" transform="translate(-13.545 -8.508)" fill="#87594a"/>
  </g>
</svg>
