<svg xmlns="http://www.w3.org/2000/svg" xmlns:xlink="http://www.w3.org/1999/xlink" width="78.946" height="74.057" viewBox="0 0 78.946 74.057">
  <defs>
    <radialGradient id="radial-gradient" cx="0.5" cy="0.416" r="0.5" gradientUnits="objectBoundingBox">
      <stop offset="0" stop-color="#fddb35"/>
      <stop offset="0.482" stop-color="#fcd934"/>
      <stop offset="0.655" stop-color="#fcd232"/>
      <stop offset="0.779" stop-color="#fbc62e"/>
      <stop offset="0.879" stop-color="#f9b528"/>
      <stop offset="0.964" stop-color="#f89f21"/>
      <stop offset="1" stop-color="#f7941e"/>
    </radialGradient>
    <radialGradient id="radial-gradient-2" cx="0.5" cy="0.5" r="0.497" gradientUnits="objectBoundingBox">
      <stop offset="0.006" stop-color="#fbec26"/>
      <stop offset="0.361" stop-color="#fae925"/>
      <stop offset="0.535" stop-color="#fae225"/>
      <stop offset="0.67" stop-color="#fad524"/>
      <stop offset="0.785" stop-color="#f9c222"/>
      <stop offset="0.887" stop-color="#f8aa20"/>
      <stop offset="0.979" stop-color="#f78c1e"/>
      <stop offset="1" stop-color="#f7851e"/>
    </radialGradient>
  </defs>
  <g id="Group_56550" data-name="Group 56550" transform="translate(-1923.271 -1040.841)">
    <path id="Path_88057" data-name="Path 88057" d="M2000.584,1077.867a37.029,37.029,0,1,1-37.026-37.026A37.025,37.025,0,0,1,2000.584,1077.867Z" transform="translate(-0.811 0)" fill="url(#radial-gradient)"/>
    <path id="Path_88058" data-name="Path 88058" d="M2005.674,1087.305a37.029,37.029,0,0,1-58.73,30,39.568,39.568,0,0,0,57.887-35.062c0-1.189-.051-2.37-.161-3.534A36.945,36.945,0,0,1,2005.674,1087.305Z" transform="translate(-5.898 -9.435)" fill="#fbd69e" style="mix-blend-mode: multiply;isolation: isolate"/>
    <g id="Group_56547" data-name="Group 56547" transform="translate(1938.965 1083.673)">
      <path id="Path_88059" data-name="Path 88059" d="M1991.729,1099.456a23.2,23.2,0,0,1-1.479,6.087,23.667,23.667,0,0,1-22.059,15.078h-.479a23.642,23.642,0,0,1-23.531-21.166,1.427,1.427,0,0,1,1.957-1.466c7.647,3.021,19.729,3.353,21.814,3.353s14.173-.333,21.82-3.353A1.427,1.427,0,0,1,1991.729,1099.456Z" transform="translate(-1944.172 -1097.885)" fill="#87594a"/>
      <path id="Path_88060" data-name="Path 88060" d="M1991.729,1099.456a23.2,23.2,0,0,1-1.479,6.087,56.4,56.4,0,0,1-21.913,4.2h-.777a56.475,56.475,0,0,1-21.9-4.194,23.515,23.515,0,0,1-1.478-6.093,1.427,1.427,0,0,1,1.957-1.466c7.647,3.021,19.729,3.353,21.814,3.353s14.173-.333,21.82-3.353A1.427,1.427,0,0,1,1991.729,1099.456Z" transform="translate(-1944.172 -1097.885)" fill="#fff"/>
      <path id="Path_88061" data-name="Path 88061" d="M1946.137,1099.114c7.647,3.02,19.729,3.353,21.814,3.353s14.173-.333,21.82-3.353a1.424,1.424,0,0,1,1.883.874c.023-.178.056-.353.074-.532a1.427,1.427,0,0,0-1.958-1.466c-7.647,3.021-19.734,3.353-21.82,3.353s-14.166-.333-21.814-3.353a1.427,1.427,0,0,0-1.957,1.466c.019.179.051.354.074.532A1.425,1.425,0,0,1,1946.137,1099.114Z" transform="translate(-1944.172 -1097.885)" fill="#87594a"/>
    </g>
    <g id="Group_56548" data-name="Group 56548" transform="translate(1923.271 1044.956)" style="mix-blend-mode: multiply;isolation: isolate">
      <path id="Path_88062" data-name="Path 88062" d="M2015.035,1065.412l-9.371,6.147-.242,10.91a1.823,1.823,0,0,1-2.152,2.045.055.055,0,0,0-.022,0,1.827,1.827,0,0,1-.793-.367l-8.74-7.012-10.73,3.226a1.821,1.821,0,0,1-2.228-2.389l3.967-10.48-6.384-9.21a1.822,1.822,0,0,1,1.584-2.857l11.193.535,6.786-8.917a1.821,1.821,0,0,1,3.205.624l2.952,10.81,10.578,3.7a1.821,1.821,0,0,1,.4,3.241Z" transform="translate(-1936.91 -1046.321)" fill="#fbd69e"/>
      <path id="Path_88063" data-name="Path 88063" d="M1924.092,1065.412l9.371,6.147.242,10.91a1.823,1.823,0,0,0,2.152,2.045.054.054,0,0,1,.022,0,1.821,1.821,0,0,0,.793-.367l8.74-7.012,10.73,3.226a1.821,1.821,0,0,0,2.228-2.389l-3.967-10.48,6.384-9.21a1.822,1.822,0,0,0-1.584-2.857l-11.193.535-6.786-8.917a1.822,1.822,0,0,0-3.206.624l-2.951,10.81-10.578,3.7a1.821,1.821,0,0,0-.4,3.241Z" transform="translate(-1923.271 -1046.321)" fill="#fbd69e"/>
    </g>
    <g id="Group_56549" data-name="Group 56549" transform="translate(1923.271 1043.706)">
      <path id="Path_88064" data-name="Path 88064" d="M2015.035,1063.748l-9.371,6.147-.242,10.911a1.823,1.823,0,0,1-2.152,2.045.045.045,0,0,0-.022,0,1.823,1.823,0,0,1-.793-.367l-8.74-7.012-10.73,3.226a1.822,1.822,0,0,1-2.228-2.39l3.967-10.48-6.384-9.21a1.822,1.822,0,0,1,1.584-2.856l11.193.536,6.786-8.917a1.822,1.822,0,0,1,3.205.623l2.952,10.81,10.578,3.7a1.821,1.821,0,0,1,.4,3.241Z" transform="translate(-1936.91 -1044.657)" fill="url(#radial-gradient-2)"/>
      <path id="Path_88065" data-name="Path 88065" d="M1924.092,1063.748l9.371,6.147.242,10.911a1.823,1.823,0,0,0,2.152,2.045.044.044,0,0,1,.022,0,1.817,1.817,0,0,0,.793-.367l8.74-7.012,10.73,3.226a1.822,1.822,0,0,0,2.228-2.39l-3.967-10.48,6.384-9.21a1.822,1.822,0,0,0-1.584-2.856l-11.193.536-6.786-8.917a1.822,1.822,0,0,0-3.206.623l-2.951,10.81-10.578,3.7a1.821,1.821,0,0,0-.4,3.241Z" transform="translate(-1923.271 -1044.657)" fill="url(#radial-gradient-2)"/>
    </g>
  </g>
</svg>
