<svg xmlns="http://www.w3.org/2000/svg" xmlns:xlink="http://www.w3.org/1999/xlink" width="73.647" height="73.647" viewBox="0 0 73.647 73.647">
  <defs>
    <radialGradient id="radial-gradient" cx="0.59" cy="0.491" r="0.5" gradientUnits="objectBoundingBox">
      <stop offset="0" stop-color="#fddb35"/>
      <stop offset="0.482" stop-color="#fcd934"/>
      <stop offset="0.655" stop-color="#fcd232"/>
      <stop offset="0.779" stop-color="#fbc62e"/>
      <stop offset="0.879" stop-color="#f9b528"/>
      <stop offset="0.964" stop-color="#f89f21"/>
      <stop offset="1" stop-color="#f7941e"/>
    </radialGradient>
  </defs>
  <g id="Group_56561" data-name="Group 56561" transform="translate(-1797.144 -515)">
    <circle id="Ellipse_959" data-name="Ellipse 959" cx="36.556" cy="36.556" r="36.556" transform="translate(1797.144 588.11) rotate(-89.578)" fill="url(#radial-gradient)"/>
    <path id="Path_88106" data-name="Path 88106" d="M1875.9,561.719a36.557,36.557,0,0,1-57.982,29.618,39.064,39.064,0,0,0,57.149-34.614c0-1.174-.051-2.34-.159-3.489A36.531,36.531,0,0,1,1875.9,561.719Z" transform="translate(-5.374 -9.892)" fill="#fbd69e" style="mix-blend-mode: multiply;isolation: isolate"/>
    <path id="Path_88107" data-name="Path 88107" d="M1858.075,590.095c.089,3.136-1.545,4.728-3.47,4.621a3.583,3.583,0,0,1-.775-.132,5.357,5.357,0,0,1-2.54-1.729c-2.832-3.279-6.928-2.809-10.506-2.809s-7.68-.471-10.511,2.809a5.356,5.356,0,0,1-2.541,1.729,4.005,4.005,0,0,1-.769.132c-1.932.113-3.572-1.479-3.47-4.621a12.423,12.423,0,0,1,1.323-5.372c3.327-6.553,12.039-8.688,15.968-8.688s12.641,2.135,15.968,8.688A12.418,12.418,0,0,1,1858.075,590.095Z" transform="translate(-6.816 -15.791)" fill="#87594a"/>
    <path id="Path_88108" data-name="Path 88108" d="M1855.818,598.687a3.591,3.591,0,0,1-.775-.132,5.359,5.359,0,0,1-2.54-1.729c-2.833-3.28-6.928-2.809-10.506-2.809s-7.68-.471-10.511,2.809a5.359,5.359,0,0,1-2.541,1.729,4.014,4.014,0,0,1-.769.132c2.379-5.259,7.668-7.3,13.821-7.3S1853.439,593.427,1855.818,598.687Z" transform="translate(-8.028 -19.761)" fill="#ee6571"/>
    <path id="Path_88109" data-name="Path 88109" d="M1856.647,583.267c-.363.156-.736.309-1.119.455a33.489,33.489,0,0,0-27.954,0c-.383-.146-.755-.3-1.119-.455,3.787-5.418,11.473-7.231,15.1-7.231S1852.859,577.849,1856.647,583.267Z" transform="translate(-7.583 -15.791)" fill="#fff"/>
    <path id="Path_88110" data-name="Path 88110" d="M1828.726,537.33a9.479,9.479,0,0,1-6.729,3.932,2.3,2.3,0,0,0-2.109,1.774l0,.036c-.137.969,1,1.92,2.488,1.763a13.074,13.074,0,0,0,9.28-5.423c.867-1.219.6-2.677-.314-3.033l-.032-.014A2.294,2.294,0,0,0,1828.726,537.33Z" transform="translate(-5.881 -5.496)" fill="#fbd69e" style="mix-blend-mode: multiply;isolation: isolate"/>
    <path id="Path_88111" data-name="Path 88111" d="M1860.618,537.33a9.478,9.478,0,0,0,6.728,3.932,2.3,2.3,0,0,1,2.109,1.774l0,.036c.138.969-1,1.92-2.489,1.763a13.076,13.076,0,0,1-9.28-5.423c-.866-1.219-.6-2.677.314-3.033l.033-.014A2.3,2.3,0,0,1,1860.618,537.33Z" transform="translate(-15.528 -5.496)" fill="#fbd69e" style="mix-blend-mode: multiply;isolation: isolate"/>
    <path id="Path_88112" data-name="Path 88112" d="M1825.358,556.438a12.332,12.332,0,0,1-7.607.316.645.645,0,0,0-.709.989,8.642,8.642,0,0,0,15.61-5.5.646.646,0,0,0-1.172-.326A12.334,12.334,0,0,1,1825.358,556.438Z" transform="translate(-5.118 -9.478)" fill="#87594a"/>
    <path id="Path_88113" data-name="Path 88113" d="M1862.784,556.438a12.334,12.334,0,0,0,7.607.316.645.645,0,0,1,.708.989,8.641,8.641,0,0,1-15.609-5.5.646.646,0,0,1,1.172-.326A12.328,12.328,0,0,0,1862.784,556.438Z" transform="translate(-15.089 -9.478)" fill="#87594a"/>
  </g>
</svg>
