<svg xmlns="http://www.w3.org/2000/svg" xmlns:xlink="http://www.w3.org/1999/xlink" width="74.384" height="74.386" viewBox="0 0 74.384 74.386">
  <defs>
    <radialGradient id="radial-gradient" cx="0.506" cy="0.433" r="0.5" gradientUnits="objectBoundingBox">
      <stop offset="0" stop-color="#fddb35"/>
      <stop offset="0.482" stop-color="#fcd934"/>
      <stop offset="0.655" stop-color="#fcd232"/>
      <stop offset="0.779" stop-color="#fbc62e"/>
      <stop offset="0.879" stop-color="#f9b528"/>
      <stop offset="0.964" stop-color="#f89f21"/>
      <stop offset="1" stop-color="#f7941e"/>
    </radialGradient>
  </defs>
  <g id="Group_56543" data-name="Group 56543" transform="translate(-1717.703 -825.698)">
    <circle id="Ellipse_946" data-name="Ellipse 946" cx="37.192" cy="37.192" r="37.192" transform="translate(1717.703 825.698)" fill="url(#radial-gradient)"/>
    <path id="Path_88043" data-name="Path 88043" d="M1797.106,872.2a37.192,37.192,0,0,1-58.989,30.133,39.743,39.743,0,0,0,58.142-35.216c0-1.195-.05-2.381-.161-3.55A37.126,37.126,0,0,1,1797.106,872.2Z" transform="translate(-5.018 -9.311)" fill="#fbd69e" style="mix-blend-mode: multiply;isolation: isolate"/>
    <g id="Group_56541" data-name="Group 56541" transform="translate(1731.009 868.925)">
      <path id="Path_88044" data-name="Path 88044" d="M1783.111,884.593a23.322,23.322,0,0,1-1.484,6.115,23.771,23.771,0,0,1-22.157,15.145h-.481a23.751,23.751,0,0,1-23.636-21.259,1.433,1.433,0,0,1,1.966-1.472c7.68,3.033,19.815,3.367,21.91,3.367s14.235-.334,21.916-3.367A1.433,1.433,0,0,1,1783.111,884.593Z" transform="translate(-1735.346 -883.016)" fill="#87594a"/>
      <path id="Path_88045" data-name="Path 88045" d="M1783.111,884.593a23.322,23.322,0,0,1-1.484,6.115,56.648,56.648,0,0,1-22.01,4.219h-.78a56.705,56.705,0,0,1-22-4.214,23.657,23.657,0,0,1-1.485-6.12,1.433,1.433,0,0,1,1.966-1.472c7.68,3.033,19.815,3.367,21.91,3.367s14.235-.334,21.916-3.367A1.433,1.433,0,0,1,1783.111,884.593Z" transform="translate(-1735.346 -883.016)" fill="#fff"/>
      <path id="Path_88046" data-name="Path 88046" d="M1737.32,884.25c7.68,3.034,19.815,3.368,21.91,3.368s14.235-.334,21.916-3.368a1.431,1.431,0,0,1,1.891.879c.023-.179.055-.355.074-.535a1.433,1.433,0,0,0-1.965-1.472c-7.681,3.033-19.821,3.367-21.916,3.367s-14.23-.334-21.91-3.367a1.433,1.433,0,0,0-1.966,1.472c.019.18.052.356.075.535A1.431,1.431,0,0,1,1737.32,884.25Z" transform="translate(-1735.346 -883.016)" fill="#87594a"/>
    </g>
    <g id="Group_56542" data-name="Group 56542" transform="translate(1733.605 850.708)">
      <path id="Path_88047" data-name="Path 88047" d="M1740.152,858.893c2.337.726,15.667,5.472,14.809,8.37s-10.194,6.652-14.809,6.652c-2.253,0,.108-3,3-3.97s9.552-2.469,3.971-4.507-6.839-3.219-7.873-3.863S1739.083,858.56,1740.152,858.893Z" transform="translate(-1738.789 -858.861)" fill="#87594a"/>
      <path id="Path_88048" data-name="Path 88048" d="M1788.6,858.893c-2.337.726-15.666,5.472-14.808,8.37s10.194,6.652,14.808,6.652c2.254,0-.107-3-3-3.97s-9.552-2.469-3.971-4.507,6.838-3.219,7.872-3.863S1789.67,858.56,1788.6,858.893Z" transform="translate(-1747.384 -858.861)" fill="#87594a"/>
    </g>
  </g>
</svg>
